<?xml version="1.0" encoding="utf-8"?>
<!-- Generator: Adobe Illustrator 27.3.1, SVG Export Plug-In . SVG Version: 6.00 Build 0)  -->
<svg version="1.1" xmlns="http://www.w3.org/2000/svg" xmlns:xlink="http://www.w3.org/1999/xlink" x="0px" y="0px"
	 viewBox="0 0 500 500" style="enable-background:new 0 0 500 500;" xml:space="preserve">
<style type="text/css">
	.st0{fill:#263238;}
	.st1{fill:#27DEBF;}
	.st2{opacity:0.15;fill:#27DEBF;}
	.st3{opacity:0.3;fill:#27DEBF;}
	.st4{fill:#455A64;}
	.st5{opacity:0.8;}
	.st6{opacity:0.4;}
	.st7{fill:#FFFFFF;}
	.st8{opacity:0.15;}
	.st9{fill:#37474F;}
	.st10{fill:#F28F8F;}
	.st11{fill:#FFA8A7;}
	.st12{opacity:0.6;fill:#FFFFFF;}
	.st13{opacity:0.2;}
	.st14{opacity:0.35;}
	.st15{fill:#FAFAFA;}
	.st16{fill:#E0E0E0;}
	.st17{opacity:0.3;}
	.st18{opacity:0.25;}
	.st19{opacity:0.5;}
	.st20{opacity:0.1;fill:#27DEBF;}
	.st21{fill:#FFBDA7;}
	.st22{fill:#F0997A;}
	.st23{opacity:0.75;fill:#FFFFFF;}
	.st24{opacity:0.5;fill:#FFFFFF;}
	.st25{opacity:0.4;fill:#FFFFFF;}
	.st26{opacity:0.1;}
</style>
<g id="Background_1_">
	<path id="Background" class="st0" d="M446.07,138.72C351.75,12.9,216.48-13.53,99.57,68.85C3.01,136.88-5.26,289.61,31.94,358.81
		C59.7,410.44,133.8,468.95,230.78,480.64c115.78,13.95,167.81-12.97,206.22-45.46C510.36,373.13,507.58,220.78,446.07,138.72z
		 M145.19,465.85c-17.56-6.31-37.71-13.45-63.09-34.08c-23.87-19.4-39.56-40.6-46.84-51.59c-7.28-11-11.3,35.91,30.59,68.01
		C116.28,486.84,162.85,472.19,145.19,465.85z"/>
</g>
<g id="Numbers">
	<g id="Binary">
		<g>
			<path class="st1" d="M83.34,141.99l0.96-0.73v-7.13l-0.97,0.59v-0.8l1.81-1.65v8.51l0.95-0.37v0.82l-2.74,1.58V141.99z"/>
			<path class="st2" d="M86.58,150.7c0,1.22-0.17,2.25-0.53,3.1c-0.35,0.85-0.83,1.45-1.44,1.8c-0.61,0.35-1.08,0.3-1.44-0.14
				c-0.35-0.45-0.53-1.27-0.53-2.49v-2.25c0-1.21,0.17-2.24,0.53-3.1c0.35-0.85,0.83-1.46,1.44-1.81c0.61-0.35,1.09-0.3,1.44,0.14
				c0.35,0.45,0.53,1.28,0.53,2.49V150.7z M85.75,148.65c0-0.82-0.1-1.39-0.29-1.69c-0.19-0.3-0.48-0.35-0.85-0.14
				c-0.36,0.21-0.64,0.58-0.84,1.11c-0.19,0.53-0.29,1.2-0.29,2.03v2.79c0,0.82,0.1,1.39,0.29,1.7c0.2,0.31,0.48,0.36,0.84,0.15
				c0.37-0.21,0.65-0.59,0.84-1.11c0.19-0.53,0.29-1.21,0.29-2.04V148.65z"/>
			<path class="st1" d="M83.34,168.77l0.96-0.73v-7.13l-0.97,0.59v-0.8l1.81-1.65v8.51l0.95-0.37v0.82l-2.74,1.58V168.77z"/>
			<path class="st3" d="M86.58,177.48c0,1.22-0.17,2.25-0.53,3.1c-0.35,0.85-0.83,1.45-1.44,1.8c-0.61,0.35-1.08,0.3-1.44-0.14
				c-0.35-0.45-0.53-1.27-0.53-2.49v-2.25c0-1.21,0.17-2.24,0.53-3.1c0.35-0.85,0.83-1.46,1.44-1.81c0.61-0.35,1.09-0.3,1.44,0.14
				c0.35,0.45,0.53,1.28,0.53,2.49V177.48z M85.75,175.43c0-0.82-0.1-1.39-0.29-1.69c-0.19-0.3-0.48-0.35-0.85-0.14
				c-0.36,0.21-0.64,0.58-0.84,1.11c-0.19,0.53-0.29,1.2-0.29,2.03v2.79c0,0.82,0.1,1.39,0.29,1.7c0.2,0.31,0.48,0.36,0.84,0.15
				c0.37-0.21,0.65-0.59,0.84-1.11c0.19-0.53,0.29-1.21,0.29-2.04V175.43z"/>
			<path class="st3" d="M83.34,195.55l0.96-0.73v-7.13l-0.97,0.59v-0.8l1.81-1.65v8.51l0.95-0.37v0.82l-2.74,1.58V195.55z"/>
			<path class="st1" d="M83.34,208.94l0.96-0.73v-7.13l-0.97,0.59v-0.8l1.81-1.65v8.51l0.95-0.37v0.82l-2.74,1.58V208.94z"/>
			<path class="st2" d="M83.34,222.33l0.96-0.73v-7.13l-0.97,0.59v-0.8l1.81-1.65v8.51l0.95-0.37v0.82l-2.74,1.58V222.33z"/>
			<path class="st3" d="M86.58,231.03c0,1.22-0.17,2.25-0.53,3.1c-0.35,0.85-0.83,1.45-1.44,1.8c-0.61,0.35-1.08,0.3-1.44-0.14
				c-0.35-0.45-0.53-1.27-0.53-2.49v-2.25c0-1.21,0.17-2.24,0.53-3.1c0.35-0.85,0.83-1.46,1.44-1.81c0.61-0.35,1.09-0.3,1.44,0.14
				c0.35,0.45,0.53,1.28,0.53,2.49V231.03z M85.75,228.99c0-0.82-0.1-1.39-0.29-1.69c-0.19-0.3-0.48-0.35-0.85-0.14
				c-0.36,0.21-0.64,0.58-0.84,1.11c-0.19,0.53-0.29,1.2-0.29,2.03v2.79c0,0.82,0.1,1.39,0.29,1.7c0.2,0.31,0.48,0.36,0.84,0.15
				c0.37-0.21,0.65-0.59,0.84-1.11c0.19-0.53,0.29-1.21,0.29-2.04V228.99z"/>
			<path class="st1" d="M83.34,249.11l0.96-0.73v-7.13l-0.97,0.59v-0.8l1.81-1.65v8.51l0.95-0.37v0.82l-2.74,1.58V249.11z"/>
			<path class="st2" d="M86.58,257.81c0,1.22-0.17,2.25-0.53,3.1c-0.35,0.85-0.83,1.45-1.44,1.8c-0.61,0.35-1.08,0.3-1.44-0.14
				c-0.35-0.45-0.53-1.27-0.53-2.49v-2.25c0-1.21,0.17-2.25,0.53-3.1c0.35-0.85,0.83-1.46,1.44-1.81c0.61-0.35,1.09-0.3,1.44,0.14
				c0.35,0.45,0.53,1.28,0.53,2.49V257.81z M85.75,255.77c0-0.82-0.1-1.39-0.29-1.69c-0.19-0.3-0.48-0.35-0.85-0.14
				c-0.36,0.21-0.64,0.58-0.84,1.11c-0.19,0.53-0.29,1.2-0.29,2.03v2.79c0,0.82,0.1,1.39,0.29,1.7c0.2,0.31,0.48,0.36,0.84,0.15
				c0.37-0.21,0.65-0.59,0.84-1.12s0.29-1.21,0.29-2.04V255.77z"/>
			<path class="st3" d="M83.34,275.89l0.96-0.73v-7.13l-0.97,0.59v-0.8l1.81-1.65v8.51l0.95-0.37v0.82l-2.74,1.58V275.89z"/>
			<path class="st1" d="M86.58,284.59c0,1.22-0.17,2.25-0.53,3.1c-0.35,0.85-0.83,1.45-1.44,1.8c-0.61,0.35-1.08,0.3-1.44-0.14
				c-0.35-0.45-0.53-1.27-0.53-2.49v-2.25c0-1.21,0.17-2.25,0.53-3.1c0.35-0.85,0.83-1.46,1.44-1.81c0.61-0.35,1.09-0.3,1.44,0.14
				c0.35,0.45,0.53,1.28,0.53,2.49V284.59z M85.75,282.55c0-0.82-0.1-1.39-0.29-1.69c-0.19-0.3-0.48-0.35-0.85-0.14
				c-0.36,0.21-0.64,0.58-0.84,1.11c-0.19,0.53-0.29,1.2-0.29,2.03v2.79c0,0.82,0.1,1.39,0.29,1.7c0.2,0.31,0.48,0.36,0.84,0.15
				c0.37-0.21,0.65-0.59,0.84-1.12s0.29-1.21,0.29-2.04V282.55z"/>
		</g>
		<g>
			<path class="st1" d="M74.4,144.34c0,1.22-0.17,2.25-0.53,3.1c-0.35,0.85-0.83,1.45-1.44,1.8c-0.61,0.35-1.08,0.3-1.44-0.14
				c-0.35-0.45-0.53-1.27-0.53-2.49v-2.25c0-1.21,0.17-2.24,0.53-3.1c0.35-0.85,0.83-1.46,1.44-1.81c0.61-0.35,1.09-0.3,1.44,0.14
				c0.35,0.45,0.53,1.28,0.53,2.49V144.34z M73.56,142.29c0-0.82-0.1-1.39-0.29-1.69c-0.19-0.3-0.48-0.35-0.85-0.14
				c-0.36,0.21-0.64,0.58-0.84,1.11c-0.19,0.53-0.29,1.2-0.29,2.03v2.79c0,0.82,0.1,1.39,0.29,1.7c0.2,0.31,0.48,0.36,0.84,0.15
				c0.37-0.21,0.65-0.59,0.84-1.11c0.19-0.53,0.29-1.21,0.29-2.04V142.29z"/>
			<path class="st1" d="M71.15,162.41l0.96-0.73v-7.13l-0.97,0.59v-0.8l1.81-1.65v8.51l0.95-0.37v0.82l-2.74,1.58V162.41z"/>
			<path class="st2" d="M71.15,175.8l0.96-0.73v-7.13l-0.97,0.59v-0.8l1.81-1.65v8.51l0.95-0.37v0.82l-2.74,1.58V175.8z"/>
			<path class="st3" d="M71.15,189.19l0.96-0.73v-7.13l-0.97,0.59v-0.8l1.81-1.65v8.51l0.95-0.37v0.82l-2.74,1.58V189.19z"/>
			<path class="st1" d="M74.4,197.9c0,1.22-0.17,2.25-0.53,3.1c-0.35,0.85-0.83,1.45-1.44,1.8c-0.61,0.35-1.08,0.3-1.44-0.14
				c-0.35-0.45-0.53-1.27-0.53-2.49v-2.25c0-1.21,0.17-2.24,0.53-3.1c0.35-0.85,0.83-1.46,1.44-1.81c0.61-0.35,1.09-0.3,1.44,0.14
				c0.35,0.45,0.53,1.28,0.53,2.49V197.9z M73.56,195.85c0-0.82-0.1-1.39-0.29-1.69c-0.19-0.3-0.48-0.35-0.85-0.14
				c-0.36,0.21-0.64,0.58-0.84,1.11c-0.19,0.53-0.29,1.2-0.29,2.03v2.79c0,0.82,0.1,1.39,0.29,1.7c0.2,0.31,0.48,0.36,0.84,0.15
				c0.37-0.21,0.65-0.59,0.84-1.11c0.19-0.53,0.29-1.21,0.29-2.04V195.85z"/>
			<path class="st3" d="M74.4,211.29c0,1.22-0.17,2.25-0.53,3.1c-0.35,0.85-0.83,1.45-1.44,1.8c-0.61,0.35-1.08,0.3-1.44-0.14
				c-0.35-0.45-0.53-1.27-0.53-2.49v-2.25c0-1.21,0.17-2.24,0.53-3.1c0.35-0.85,0.83-1.46,1.44-1.81c0.61-0.35,1.09-0.3,1.44,0.14
				c0.35,0.45,0.53,1.28,0.53,2.49V211.29z M73.56,209.24c0-0.82-0.1-1.39-0.29-1.69c-0.19-0.3-0.48-0.35-0.85-0.14
				c-0.36,0.21-0.64,0.58-0.84,1.11c-0.19,0.53-0.29,1.2-0.29,2.03v2.79c0,0.82,0.1,1.39,0.29,1.7c0.2,0.31,0.48,0.36,0.84,0.15
				c0.37-0.21,0.65-0.59,0.84-1.11c0.19-0.53,0.29-1.21,0.29-2.04V209.24z"/>
			<path class="st1" d="M71.15,229.36l0.96-0.73v-7.13l-0.97,0.59v-0.8l1.81-1.65v8.51l0.95-0.37v0.82l-2.74,1.58V229.36z"/>
			<path class="st1" d="M74.4,238.07c0,1.22-0.17,2.25-0.53,3.1c-0.35,0.85-0.83,1.45-1.44,1.8c-0.61,0.35-1.08,0.3-1.44-0.14
				c-0.35-0.45-0.53-1.27-0.53-2.49v-2.25c0-1.21,0.17-2.24,0.53-3.1c0.35-0.85,0.83-1.46,1.44-1.81c0.61-0.35,1.09-0.3,1.44,0.14
				c0.35,0.45,0.53,1.28,0.53,2.49V238.07z M73.56,236.02c0-0.82-0.1-1.39-0.29-1.69c-0.19-0.3-0.48-0.35-0.85-0.14
				c-0.36,0.21-0.64,0.58-0.84,1.11c-0.19,0.53-0.29,1.2-0.29,2.03v2.79c0,0.82,0.1,1.39,0.29,1.7c0.2,0.31,0.48,0.36,0.84,0.15
				c0.37-0.21,0.65-0.59,0.84-1.11c0.19-0.53,0.29-1.21,0.29-2.04V236.02z"/>
			<path class="st3" d="M71.15,256.14l0.96-0.73v-7.13l-0.97,0.59v-0.8l1.81-1.65v8.51l0.95-0.37v0.82l-2.74,1.58V256.14z"/>
			<path class="st3" d="M74.4,264.85c0,1.22-0.17,2.25-0.53,3.1c-0.35,0.85-0.83,1.45-1.44,1.8c-0.61,0.35-1.08,0.3-1.44-0.14
				c-0.35-0.45-0.53-1.27-0.53-2.49v-2.25c0-1.21,0.17-2.25,0.53-3.1c0.35-0.85,0.83-1.46,1.44-1.81c0.61-0.35,1.09-0.3,1.44,0.14
				c0.35,0.45,0.53,1.28,0.53,2.49V264.85z M73.56,262.8c0-0.82-0.1-1.39-0.29-1.69c-0.19-0.3-0.48-0.35-0.85-0.14
				c-0.36,0.21-0.64,0.58-0.84,1.11c-0.19,0.53-0.29,1.2-0.29,2.03v2.79c0,0.82,0.1,1.39,0.29,1.7c0.2,0.31,0.48,0.36,0.84,0.15
				c0.37-0.21,0.65-0.59,0.84-1.12s0.29-1.21,0.29-2.04V262.8z"/>
			<path class="st1" d="M71.15,282.92l0.96-0.73v-7.13l-0.97,0.59v-0.8l1.81-1.65v8.51l0.95-0.37v0.82l-2.74,1.58V282.92z"/>
			<path class="st3" d="M74.4,291.63c0,1.22-0.17,2.25-0.53,3.1c-0.35,0.85-0.83,1.45-1.44,1.8c-0.61,0.35-1.08,0.3-1.44-0.14
				c-0.35-0.45-0.53-1.27-0.53-2.49v-2.25c0-1.21,0.17-2.25,0.53-3.1c0.35-0.85,0.83-1.46,1.44-1.81c0.61-0.35,1.09-0.3,1.44,0.14
				c0.35,0.45,0.53,1.28,0.53,2.49V291.63z M73.56,289.58c0-0.82-0.1-1.39-0.29-1.69c-0.19-0.3-0.48-0.35-0.85-0.14
				c-0.36,0.21-0.64,0.58-0.84,1.11c-0.19,0.53-0.29,1.2-0.29,2.03v2.79c0,0.82,0.1,1.39,0.29,1.7c0.2,0.31,0.48,0.36,0.84,0.15
				c0.37-0.21,0.65-0.59,0.84-1.12s0.29-1.21,0.29-2.04V289.58z"/>
			<path class="st2" d="M74.4,305.02c0,1.22-0.17,2.25-0.53,3.1c-0.35,0.85-0.83,1.45-1.44,1.8c-0.61,0.35-1.08,0.3-1.44-0.14
				c-0.35-0.45-0.53-1.27-0.53-2.49v-2.26c0-1.21,0.17-2.24,0.53-3.1c0.35-0.85,0.83-1.46,1.44-1.8c0.61-0.35,1.09-0.3,1.44,0.14
				c0.35,0.45,0.53,1.28,0.53,2.49V305.02z M73.56,302.97c0-0.82-0.1-1.39-0.29-1.69c-0.19-0.3-0.48-0.35-0.85-0.14
				c-0.36,0.21-0.64,0.58-0.84,1.11c-0.19,0.53-0.29,1.2-0.29,2.03v2.79c0,0.82,0.1,1.39,0.29,1.7c0.2,0.31,0.48,0.36,0.84,0.15
				c0.37-0.21,0.65-0.59,0.84-1.11c0.19-0.53,0.29-1.21,0.29-2.04V302.97z"/>
		</g>
		<g>
			<path class="st1" d="M58.96,156.06l0.96-0.73v-7.13l-0.97,0.59v-0.8l1.81-1.65v8.51l0.95-0.37v0.82l-2.74,1.58V156.06z"/>
			<path class="st3" d="M58.96,169.45l0.96-0.73v-7.13l-0.97,0.59v-0.8l1.81-1.65v8.51l0.95-0.37v0.82l-2.74,1.58V169.45z"/>
			<path class="st1" d="M62.21,178.16c0,1.22-0.17,2.25-0.53,3.1c-0.35,0.85-0.83,1.45-1.44,1.8c-0.61,0.35-1.08,0.3-1.44-0.14
				c-0.35-0.45-0.53-1.27-0.53-2.49v-2.25c0-1.21,0.17-2.24,0.53-3.1c0.35-0.85,0.83-1.46,1.44-1.81c0.61-0.35,1.09-0.3,1.44,0.14
				c0.35,0.45,0.53,1.28,0.53,2.49V178.16z M61.38,176.11c0-0.82-0.1-1.39-0.29-1.69c-0.19-0.3-0.48-0.35-0.85-0.14
				c-0.36,0.21-0.64,0.58-0.84,1.11c-0.19,0.53-0.29,1.2-0.29,2.03v2.79c0,0.82,0.1,1.39,0.29,1.7c0.2,0.31,0.48,0.36,0.84,0.15
				c0.37-0.21,0.65-0.59,0.84-1.11c0.19-0.53,0.29-1.21,0.29-2.04V176.11z"/>
			<path class="st3" d="M58.96,196.23l0.96-0.73v-7.13l-0.97,0.59v-0.8l1.81-1.65v8.51l0.95-0.37v0.82l-2.74,1.58V196.23z"/>
			<path class="st2" d="M62.21,204.94c0,1.22-0.17,2.25-0.53,3.1c-0.35,0.85-0.83,1.45-1.44,1.8c-0.61,0.35-1.08,0.3-1.44-0.14
				c-0.35-0.45-0.53-1.27-0.53-2.49v-2.25c0-1.21,0.17-2.24,0.53-3.1c0.35-0.85,0.83-1.46,1.44-1.81c0.61-0.35,1.09-0.3,1.44,0.14
				c0.35,0.45,0.53,1.28,0.53,2.49V204.94z M61.38,202.89c0-0.82-0.1-1.39-0.29-1.69c-0.19-0.3-0.48-0.35-0.85-0.14
				c-0.36,0.21-0.64,0.58-0.84,1.11c-0.19,0.53-0.29,1.2-0.29,2.03v2.79c0,0.82,0.1,1.39,0.29,1.7c0.2,0.31,0.48,0.36,0.84,0.15
				c0.37-0.21,0.65-0.59,0.84-1.11c0.19-0.53,0.29-1.21,0.29-2.04V202.89z"/>
			<path class="st1" d="M62.21,218.33c0,1.22-0.17,2.25-0.53,3.1c-0.35,0.85-0.83,1.45-1.44,1.8c-0.61,0.35-1.08,0.3-1.44-0.14
				c-0.35-0.45-0.53-1.27-0.53-2.49v-2.25c0-1.21,0.17-2.24,0.53-3.1c0.35-0.85,0.83-1.46,1.44-1.81c0.61-0.35,1.09-0.3,1.44,0.14
				c0.35,0.45,0.53,1.28,0.53,2.49V218.33z M61.38,216.28c0-0.82-0.1-1.39-0.29-1.69c-0.19-0.3-0.48-0.35-0.85-0.14
				c-0.36,0.21-0.64,0.58-0.84,1.11c-0.19,0.53-0.29,1.2-0.29,2.03v2.79c0,0.82,0.1,1.39,0.29,1.7c0.2,0.31,0.48,0.36,0.84,0.15
				c0.37-0.21,0.65-0.59,0.84-1.11c0.19-0.53,0.29-1.21,0.29-2.04V216.28z"/>
			<path class="st3" d="M58.96,236.4l0.96-0.73v-7.13l-0.97,0.59v-0.8l1.81-1.65v8.51l0.95-0.37v0.82l-2.74,1.58V236.4z"/>
			<path class="st3" d="M62.21,245.1c0,1.22-0.17,2.25-0.53,3.1c-0.35,0.85-0.83,1.45-1.44,1.8c-0.61,0.35-1.08,0.3-1.44-0.14
				c-0.35-0.45-0.53-1.27-0.53-2.49v-2.25c0-1.21,0.17-2.24,0.53-3.1c0.35-0.85,0.83-1.46,1.44-1.81c0.61-0.35,1.09-0.3,1.44,0.14
				c0.35,0.45,0.53,1.28,0.53,2.49V245.1z M61.38,243.06c0-0.82-0.1-1.39-0.29-1.69c-0.19-0.3-0.48-0.35-0.85-0.14
				c-0.36,0.21-0.64,0.58-0.84,1.11c-0.19,0.53-0.29,1.2-0.29,2.03v2.79c0,0.82,0.1,1.39,0.29,1.7c0.2,0.31,0.48,0.36,0.84,0.15
				c0.37-0.21,0.65-0.59,0.84-1.12c0.19-0.53,0.29-1.21,0.29-2.04V243.06z"/>
			<path class="st1" d="M62.21,258.5c0,1.22-0.17,2.25-0.53,3.1c-0.35,0.85-0.83,1.45-1.44,1.8c-0.61,0.35-1.08,0.3-1.44-0.14
				c-0.35-0.45-0.53-1.27-0.53-2.49v-2.25c0-1.21,0.17-2.24,0.53-3.1c0.35-0.85,0.83-1.46,1.44-1.8c0.61-0.35,1.09-0.3,1.44,0.14
				c0.35,0.45,0.53,1.28,0.53,2.49V258.5z M61.38,256.45c0-0.82-0.1-1.39-0.29-1.69c-0.19-0.3-0.48-0.35-0.85-0.14
				c-0.36,0.21-0.64,0.58-0.84,1.11c-0.19,0.53-0.29,1.2-0.29,2.03v2.79c0,0.82,0.1,1.39,0.29,1.7c0.2,0.31,0.48,0.36,0.84,0.15
				c0.37-0.21,0.65-0.59,0.84-1.12c0.19-0.53,0.29-1.21,0.29-2.04V256.45z"/>
			<path class="st3" d="M58.96,276.57l0.96-0.73v-7.13l-0.97,0.59v-0.8l1.81-1.65v8.51l0.95-0.37v0.82l-2.74,1.58V276.57z"/>
			<path class="st2" d="M58.96,289.96l0.96-0.73v-7.13l-0.97,0.59v-0.8l1.81-1.65v8.51l0.95-0.37v0.82l-2.74,1.58V289.96z"/>
			<path class="st3" d="M62.21,298.67c0,1.22-0.17,2.25-0.53,3.1c-0.35,0.85-0.83,1.45-1.44,1.8c-0.61,0.35-1.08,0.3-1.44-0.14
				c-0.35-0.45-0.53-1.27-0.53-2.49v-2.25c0-1.21,0.17-2.25,0.53-3.1c0.35-0.85,0.83-1.46,1.44-1.81c0.61-0.35,1.09-0.3,1.44,0.14
				c0.35,0.45,0.53,1.28,0.53,2.49V298.67z M61.38,296.62c0-0.82-0.1-1.39-0.29-1.69c-0.19-0.3-0.48-0.35-0.85-0.14
				c-0.36,0.21-0.64,0.58-0.84,1.11c-0.19,0.53-0.29,1.2-0.29,2.03v2.79c0,0.82,0.1,1.39,0.29,1.7c0.2,0.31,0.48,0.36,0.84,0.15
				c0.37-0.21,0.65-0.59,0.84-1.12s0.29-1.21,0.29-2.04V296.62z"/>
			<path class="st1" d="M58.96,316.74l0.96-0.73v-7.13l-0.97,0.59v-0.8l1.81-1.65v8.51l0.95-0.37v0.82l-2.74,1.58V316.74z"/>
			<path class="st3" d="M62.21,325.44c0,1.22-0.17,2.25-0.53,3.1c-0.35,0.85-0.83,1.45-1.44,1.8c-0.61,0.35-1.08,0.3-1.44-0.14
				c-0.35-0.45-0.53-1.27-0.53-2.49v-2.26c0-1.21,0.17-2.24,0.53-3.1c0.35-0.85,0.83-1.46,1.44-1.8c0.61-0.35,1.09-0.3,1.44,0.14
				c0.35,0.45,0.53,1.28,0.53,2.49V325.44z M61.38,323.4c0-0.82-0.1-1.39-0.29-1.69c-0.19-0.3-0.48-0.35-0.85-0.14
				c-0.36,0.21-0.64,0.58-0.84,1.11c-0.19,0.53-0.29,1.2-0.29,2.03v2.79c0,0.82,0.1,1.39,0.29,1.7c0.2,0.31,0.48,0.36,0.84,0.15
				c0.37-0.21,0.65-0.59,0.84-1.11c0.19-0.53,0.29-1.21,0.29-2.04V323.4z"/>
		</g>
	</g>
</g>
<g id="Window">
	<g id="Window_Code">
		<g id="XMLID_1106_">
			<g id="XMLID_1117_">
				<g>
					<g id="XMLID_12_">
						<path class="st4" d="M209.1,69.32v148.46c0,1.97-1.39,4.36-3.09,5.34l-105.6,60.93c-0.35,0.2-0.71,0.3-1.02,0.29
							c-0.13,0-0.26-0.02-0.39-0.05c-0.09-0.02-0.18-0.05-0.26-0.09c-0.06-0.03-0.11-0.06-0.16-0.09c-0.06-0.04-0.12-0.08-0.18-0.12
							c-0.06-0.05-0.12-0.09-0.17-0.15c-0.24-0.22-0.43-0.5-0.57-0.81c-0.2-0.46-0.32-0.99-0.32-1.56V133.77
							c0-1.96,1.39-4.36,3.09-5.34l105.6-60.88c0.8-0.46,1.52-0.53,2.07-0.26c0.09,0.04,0.18,0.09,0.26,0.15
							c0.01,0.01,0.02,0.02,0.02,0.02c0.08,0.06,0.14,0.12,0.2,0.2c0.04,0.03,0.06,0.07,0.09,0.11c0.04,0.05,0.08,0.1,0.1,0.16
							c0.08,0.12,0.14,0.25,0.18,0.39c0.03,0.08,0.06,0.17,0.07,0.27c0.01,0.02,0.02,0.04,0.01,0.06c0.03,0.09,0.04,0.18,0.05,0.28
							C209.09,69.06,209.1,69.19,209.1,69.32z"/>
						<path class="st4" d="M207.38,68.12c0.11,0,0.2,0.02,0.3,0.07c0.01,0.01,0.02,0.01,0.03,0.02l0,0l0.06,0.04l0.08,0.11l0,0
							l0.07,0.11c0.01,0.01,0.02,0.03,0.02,0.04l-0.02,0.03l0.1,0.29l0,0.03l0.02,0.05l0.01,0.03c0.01,0.03,0.01,0.06,0.01,0.07
							c0.01,0.1,0.02,0.2,0.02,0.3v148.46c0,1.62-1.18,3.67-2.59,4.48L99.92,283.18c-0.25,0.14-0.42,0.16-0.52,0.16c0,0,0,0-0.01,0
							c-0.04,0-0.1-0.01-0.21-0.04c-0.03-0.02-0.06-0.03-0.06-0.03c0,0,0,0,0,0l-0.15-0.1l-0.02-0.02l-0.01-0.02l-0.05-0.05
							c-0.13-0.12-0.24-0.28-0.33-0.48c-0.16-0.35-0.24-0.75-0.24-1.15V133.77c0-1.62,1.18-3.67,2.59-4.48l105.59-60.88
							C206.83,68.22,207.13,68.12,207.38,68.12 M207.38,67.12c-0.41,0-0.88,0.13-1.37,0.42l-105.6,60.88
							c-1.7,0.98-3.09,3.38-3.09,5.34v147.71c0,0.57,0.12,1.1,0.32,1.56c0.14,0.31,0.32,0.59,0.57,0.81
							c0.05,0.06,0.11,0.1,0.17,0.15c0.06,0.04,0.12,0.08,0.18,0.12c0.05,0.03,0.1,0.06,0.16,0.09c0.08,0.04,0.17,0.07,0.26,0.09
							c0.13,0.03,0.26,0.05,0.39,0.05c0.01,0,0.03,0,0.04,0c0.3,0,0.64-0.1,0.98-0.29l105.6-60.93c1.7-0.98,3.09-3.37,3.09-5.34
							V69.32c0-0.13-0.01-0.26-0.02-0.38c-0.01-0.1-0.02-0.19-0.05-0.28c0.01-0.02,0-0.04-0.01-0.06c-0.01-0.1-0.04-0.19-0.07-0.27
							c-0.04-0.14-0.1-0.27-0.18-0.39c-0.02-0.06-0.06-0.11-0.1-0.16c-0.03-0.04-0.05-0.08-0.09-0.11c-0.06-0.08-0.12-0.14-0.2-0.2
							c0,0-0.01-0.01-0.02-0.02c-0.08-0.06-0.17-0.11-0.26-0.15C207.87,67.18,207.63,67.12,207.38,67.12L207.38,67.12z"/>
					</g>
				</g>
				<g>
					<g id="XMLID_11_" class="st5">
						<path class="st4" d="M209.1,69.32v148.46c0,1.97-1.39,4.36-3.09,5.34l-105.6,60.93c-0.35,0.2-0.71,0.3-1.02,0.29
							c-0.13,0-0.26-0.02-0.39-0.05c-0.09-0.02-0.18-0.05-0.26-0.09c-0.06-0.03-0.11-0.06-0.16-0.09c-0.06-0.04-0.12-0.08-0.18-0.12
							c-0.06-0.05-0.12-0.09-0.17-0.15c-0.24-0.22-0.43-0.5-0.57-0.81c-0.2-0.46-0.32-0.99-0.32-1.56V133.77
							c0-1.96,1.39-4.36,3.09-5.34l105.6-60.88c0.8-0.46,1.52-0.53,2.07-0.26c0.09,0.04,0.18,0.09,0.26,0.15
							c0.01,0.01,0.02,0.02,0.02,0.02c0.08,0.06,0.14,0.12,0.2,0.2c0.04,0.03,0.06,0.07,0.09,0.11c0.04,0.05,0.08,0.1,0.1,0.16
							c0.08,0.12,0.14,0.25,0.18,0.39c0.03,0.08,0.06,0.17,0.07,0.27c0.01,0.02,0.02,0.04,0.01,0.06c0.03,0.09,0.04,0.18,0.05,0.28
							C209.09,69.06,209.1,69.19,209.1,69.32z"/>
					</g>
				</g>
			</g>
			<g id="XMLID_1112_">
				<g id="XMLID_1116_">
					<path class="st1" d="M208.08,67.28c-0.56-0.26-1.27-0.19-2.07,0.26l-105.6,60.88c-1.7,0.98-3.09,3.38-3.09,5.34v10.08
						l-3.94-2.31v-10.01c0-1.96,1.38-4.35,3.08-5.33l105.61-60.88c0.88-0.52,1.67-0.53,2.24-0.18
						C204.87,65.46,207.43,66.93,208.08,67.28z"/>
				</g>
				<path id="XMLID_1115_" class="st1" d="M209.09,69.3c-0.01-1.95-1.39-2.73-3.08-1.76l-105.6,60.88c-1.7,0.98-3.08,3.37-3.08,5.34
					l0,10.08l111.76-64.43V69.3z"/>
				<g id="XMLID_1114_" class="st6">
					<path class="st7" d="M206.01,67.54l-105.59,60.88c-0.84,0.49-1.62,1.33-2.17,2.29l-3.92-2.27c0.55-0.95,1.31-1.78,2.14-2.25
						l105.6-60.88c0.88-0.51,1.67-0.52,2.24-0.18c0.55,0.34,3.11,1.79,3.76,2.14C207.53,67.01,206.8,67.09,206.01,67.54z"/>
				</g>
				<path id="XMLID_1113_" class="st8" d="M93.39,141.55l0-10.02c0-1,0.37-2.1,0.94-3.08l3.93,2.26c-0.57,0.97-0.92,2.07-0.92,3.06
					v10.08L93.39,141.55z"/>
			</g>
			<g id="XMLID_1108_">
				<path id="XMLID_1111_" class="st4" d="M190.52,80.78c-0.96,0.56-1.74,2.21-1.74,3.69c0,1.48,0.78,2.23,1.74,1.68
					c0.96-0.56,1.74-2.21,1.74-3.69C192.26,80.97,191.48,80.22,190.52,80.78z"/>
				<path id="XMLID_1110_" class="st4" d="M196.79,77.15c-0.96,0.56-1.74,2.21-1.74,3.69c0,1.48,0.78,2.23,1.74,1.68
					c0.96-0.56,1.74-2.21,1.74-3.69C198.53,77.35,197.75,76.6,196.79,77.15z"/>
				<path id="XMLID_1109_" class="st4" d="M203.06,73.52c-0.96,0.56-1.74,2.21-1.74,3.69s0.78,2.23,1.74,1.68
					c0.96-0.56,1.74-2.21,1.74-3.69S204.02,72.97,203.06,73.52z"/>
			</g>
			<g id="XMLID_1107_">
				<path class="st9" d="M98.46,284.06c-0.11-0.07-0.24-0.14-0.38-0.22c-0.28-0.17-0.61-0.35-0.95-0.54l-0.01-0.01
					c-0.17-0.1-0.34-0.2-0.52-0.29c-0.01-0.01-0.03-0.02-0.04-0.02c-0.28-0.16-0.56-0.32-0.81-0.47c-0.26-0.15-0.5-0.28-0.68-0.38
					c-0.18-0.11-0.32-0.18-0.38-0.21c-0.19-0.1-0.37-0.24-0.53-0.43c-0.16-0.17-0.3-0.38-0.42-0.63c-0.22-0.47-0.35-1.03-0.35-1.63
					v-137.7l3.94,2.31v137.63c0.03,0.61,0.14,1.12,0.32,1.56c0.14,0.31,0.32,0.59,0.57,0.81c0.04,0.06,0.1,0.11,0.17,0.15
					C98.41,284.02,98.43,284.04,98.46,284.06z"/>
			</g>
		</g>
		<g id="XMLID_485_">
			<g id="XMLID_666_">
				<path id="XMLID_697_" class="st1" d="M104.9,152.22c0-0.18,0.05-0.38,0.16-0.58l2.22-4.59c0.04-0.07,0.07-0.11,0.1-0.14
					c0.03-0.02,0.05-0.04,0.06-0.04c0.07-0.04,0.12-0.03,0.17,0.01c0.05,0.05,0.07,0.12,0.07,0.23v1.54c0,0.2-0.01,0.35-0.05,0.48
					c-0.03,0.12-0.08,0.26-0.16,0.42l-1.17,2.42l1.17,1.07c0.08,0.07,0.13,0.15,0.16,0.24c0.03,0.09,0.05,0.23,0.05,0.42v1.54
					c0,0.1-0.02,0.21-0.07,0.31c-0.05,0.1-0.11,0.17-0.17,0.21c-0.01,0-0.03,0.01-0.06,0.02c-0.03,0.01-0.06,0.01-0.1-0.02
					l-2.22-2.03c-0.1-0.08-0.16-0.21-0.16-0.39V152.22z"/>
				<path id="XMLID_690_" class="st1" d="M113.01,140.72c0.04-0.15,0.09-0.3,0.17-0.45c0.08-0.15,0.18-0.27,0.33-0.35l0.83-0.48
					c0.07-0.04,0.13-0.04,0.17,0.01c0.05,0.05,0.07,0.12,0.07,0.23c0,0.05-0.01,0.1-0.02,0.17l-3.8,16.2
					c-0.03,0.13-0.08,0.28-0.16,0.44c-0.08,0.16-0.19,0.28-0.34,0.37l-0.8,0.46c-0.07,0.04-0.13,0.04-0.17-0.01
					c-0.05-0.05-0.07-0.12-0.07-0.23c0-0.05,0.01-0.1,0.02-0.17L113.01,140.72z"/>
				<path id="XMLID_684_" class="st1" d="M118.89,145.29c0,0.18-0.05,0.38-0.16,0.58l-2.22,4.59c-0.04,0.07-0.07,0.11-0.1,0.14
					c-0.03,0.02-0.05,0.04-0.06,0.04c-0.07,0.04-0.13,0.04-0.17-0.01c-0.05-0.05-0.07-0.12-0.07-0.23v-1.54
					c0-0.2,0.01-0.36,0.04-0.48c0.03-0.12,0.08-0.26,0.16-0.42l1.17-2.42l-1.17-1.07c-0.07-0.07-0.13-0.15-0.16-0.24
					c-0.03-0.09-0.04-0.23-0.04-0.42v-1.54c0-0.1,0.02-0.21,0.07-0.31c0.05-0.1,0.11-0.17,0.17-0.21c0.01,0,0.03-0.01,0.06-0.02
					c0.03-0.01,0.06-0.01,0.1,0.02l2.22,2.03c0.1,0.08,0.16,0.21,0.16,0.39V145.29z"/>
				<path id="XMLID_679_" class="st1" d="M125.05,144.22c0.08-0.05,0.15-0.04,0.21,0.01c0.06,0.06,0.09,0.15,0.09,0.28v1.7
					c0,0.13-0.03,0.25-0.09,0.38c-0.06,0.13-0.13,0.21-0.21,0.26l-1.05,0.6c-0.08,0.05-0.15,0.04-0.21-0.01
					c-0.06-0.06-0.09-0.15-0.09-0.28v-1.7c0-0.13,0.03-0.25,0.09-0.38c0.06-0.13,0.13-0.21,0.21-0.26L125.05,144.22z"/>
				<path id="XMLID_673_" class="st1" d="M128.55,142.2c0.08-0.05,0.15-0.04,0.21,0.01c0.06,0.06,0.09,0.15,0.09,0.28v1.7
					c0,0.13-0.03,0.25-0.09,0.38c-0.06,0.13-0.13,0.21-0.21,0.26l-1.05,0.6c-0.08,0.05-0.15,0.04-0.21-0.01
					c-0.06-0.06-0.09-0.15-0.09-0.28v-1.7c0-0.13,0.03-0.25,0.09-0.38c0.06-0.13,0.13-0.21,0.21-0.26L128.55,142.2z"/>
				<path id="XMLID_668_" class="st1" d="M132.05,140.18c0.08-0.05,0.15-0.04,0.21,0.01c0.06,0.06,0.09,0.15,0.09,0.28v1.7
					c0,0.13-0.03,0.25-0.09,0.38c-0.06,0.13-0.13,0.21-0.21,0.26l-1.05,0.6c-0.08,0.05-0.15,0.04-0.21-0.01
					c-0.06-0.06-0.09-0.15-0.09-0.28v-1.7c0-0.13,0.03-0.25,0.09-0.38c0.06-0.13,0.13-0.21,0.21-0.26L132.05,140.18z"/>
			</g>
			<path id="XMLID_665_" class="st1" d="M105.84,164.59l71.55-41.31c0.6-0.35,1.1-0.1,1.1,0.55c0,0.66-0.49,1.47-1.1,1.82
				l-71.55,41.31c-0.6,0.35-1.1,0.1-1.1-0.55C104.74,165.76,105.23,164.94,105.84,164.59z"/>
			<path id="XMLID_663_" class="st10" d="M122.28,183.58l71.55-41.31c0.6-0.35,1.1-0.1,1.1,0.55c0,0.66-0.49,1.47-1.1,1.82
				l-71.55,41.31c-0.6,0.35-1.1,0.1-1.1-0.55C121.18,184.74,121.67,183.93,122.28,183.58z"/>
			<path id="XMLID_662_" class="st10" d="M122.28,193.07l44.84-25.88c0.6-0.35,1.1-0.1,1.1,0.55s-0.49,1.47-1.1,1.82l-44.84,25.88
				c-0.6,0.35-1.1,0.1-1.1-0.55C121.18,194.23,121.67,193.42,122.28,193.07z"/>
			<path id="XMLID_658_" class="st10" d="M122.28,202.56l44.84-25.88c0.6-0.35,1.1-0.1,1.1,0.55s-0.49,1.47-1.1,1.82l-44.84,25.88
				c-0.6,0.35-1.1,0.1-1.1-0.55C121.18,203.73,121.67,202.91,122.28,202.56z"/>
			<path id="XMLID_642_" class="st1" d="M181.64,120.83L202.05,109c0.6-0.35,1.1-0.1,1.1,0.55c0,0.66-0.49,1.47-1.1,1.82
				l-20.42,11.83c-0.6,0.35-1.1,0.1-1.1-0.55C180.54,121.99,181.03,121.18,181.64,120.83z"/>
			<path id="XMLID_637_" class="st1" d="M123.47,258.92l53.92-31.23c0.6-0.35,1.1-0.1,1.1,0.55s-0.49,1.47-1.1,1.82l-53.92,31.23
				c-0.6,0.35-1.1,0.1-1.1-0.55C122.38,260.09,122.87,259.27,123.47,258.92z"/>
			<path id="XMLID_635_" class="st1" d="M181.64,225.24l20.42-11.83c0.6-0.35,1.1-0.1,1.1,0.55c0,0.66-0.49,1.47-1.1,1.82
				l-20.42,11.83c-0.6,0.35-1.1,0.1-1.1-0.55C180.54,226.4,181.03,225.59,181.64,225.24z"/>
			<path id="XMLID_634_" class="st1" d="M132.68,224.98l69.37-40c0.6-0.35,1.1-0.1,1.1,0.55c0,0.66-0.49,1.47-1.1,1.82l-69.37,40
				c-0.6,0.35-1.1,0.1-1.1-0.55C131.59,226.15,132.08,225.33,132.68,224.98z"/>
			<path id="XMLID_628_" class="st1" d="M115.28,244.85l86.78-50.38c0.6-0.35,1.1-0.1,1.1,0.55c0,0.66-0.49,1.47-1.1,1.82
				l-86.78,50.38c-0.6,0.35-1.1,0.1-1.1-0.55C114.18,246.01,114.67,245.2,115.28,244.85z"/>
			<path id="XMLID_626_" class="st11" d="M119.36,251.83l58.03-33.62c0.6-0.35,1.1-0.1,1.1,0.55c0,0.66-0.49,1.47-1.1,1.82
				l-58.03,33.62c-0.6,0.35-1.1,0.1-1.1-0.55C118.26,252.99,118.75,252.18,119.36,251.83z"/>
			<path id="XMLID_625_" class="st1" d="M115.28,235.01l11.47-6.62c0.61-0.35,1.1-0.1,1.1,0.55c0,0.66-0.49,1.47-1.1,1.82
				l-11.47,6.62c-0.6,0.35-1.1,0.1-1.1-0.55C114.18,236.17,114.67,235.36,115.28,235.01z"/>
			<g id="XMLID_1135_">
				<path id="XMLID_1119_" class="st1" d="M105.84,174.11l50.2-29c0.6-0.35,1.1-0.1,1.1,0.55s-0.49,1.47-1.1,1.82l-50.2,29
					c-0.6,0.35-1.1,0.1-1.1-0.55C104.74,175.27,105.23,174.46,105.84,174.11z"/>
				<path id="XMLID_624_" class="st12" d="M105.84,174.11l50.2-29c0.6-0.35,1.1-0.1,1.1,0.55s-0.49,1.47-1.1,1.82l-50.2,29
					c-0.6,0.35-1.1,0.1-1.1-0.55C104.74,175.27,105.23,174.46,105.84,174.11z"/>
			</g>
			<g id="XMLID_608_">
				<path id="XMLID_1156_" class="st1" d="M105.84,183.58l10.14-5.86c0.61-0.35,1.1-0.1,1.1,0.55s-0.49,1.47-1.1,1.82l-10.14,5.86
					c-0.6,0.35-1.1,0.1-1.1-0.55C104.74,184.75,105.23,183.93,105.84,183.58z"/>
				<path id="XMLID_622_" class="st12" d="M105.84,183.58l10.14-5.86c0.61-0.35,1.1-0.1,1.1,0.55s-0.49,1.47-1.1,1.82l-10.14,5.86
					c-0.6,0.35-1.1,0.1-1.1-0.55C104.74,184.75,105.23,183.93,105.84,183.58z"/>
			</g>
			<g id="XMLID_1166_">
				<path id="XMLID_1168_" class="st1" d="M105.84,193.07l10.14-5.86c0.61-0.35,1.1-0.1,1.1,0.55s-0.49,1.47-1.1,1.82l-10.14,5.86
					c-0.6,0.35-1.1,0.1-1.1-0.55C104.74,194.24,105.23,193.42,105.84,193.07z"/>
				<path id="XMLID_1167_" class="st12" d="M105.84,193.07l10.14-5.86c0.61-0.35,1.1-0.1,1.1,0.55s-0.49,1.47-1.1,1.82l-10.14,5.86
					c-0.6,0.35-1.1,0.1-1.1-0.55C104.74,194.24,105.23,193.42,105.84,193.07z"/>
			</g>
			<g id="XMLID_590_">
				<path id="XMLID_607_" class="st1" d="M105.84,202.57l10.14-5.86c0.61-0.35,1.1-0.1,1.1,0.55c0,0.66-0.49,1.47-1.1,1.82
					l-10.14,5.86c-0.6,0.35-1.1,0.1-1.1-0.55C104.74,203.73,105.23,202.91,105.84,202.57z"/>
				<path id="XMLID_599_" class="st12" d="M105.84,202.57l10.14-5.86c0.61-0.35,1.1-0.1,1.1,0.55c0,0.66-0.49,1.47-1.1,1.82
					l-10.14,5.86c-0.6,0.35-1.1,0.1-1.1-0.55C104.74,203.73,105.23,202.91,105.84,202.57z"/>
			</g>
			<g id="XMLID_557_">
				<path id="XMLID_577_" class="st1" d="M105.84,212.06l10.14-5.86c0.61-0.35,1.1-0.1,1.1,0.55s-0.49,1.47-1.1,1.82l-10.14,5.86
					c-0.6,0.35-1.1,0.1-1.1-0.55C104.74,213.22,105.23,212.41,105.84,212.06z"/>
				<path id="XMLID_575_" class="st12" d="M105.84,212.06l10.14-5.86c0.61-0.35,1.1-0.1,1.1,0.55s-0.49,1.47-1.1,1.82l-10.14,5.86
					c-0.6,0.35-1.1,0.1-1.1-0.55C104.74,213.22,105.23,212.41,105.84,212.06z"/>
			</g>
			<g id="XMLID_1126_">
				<path id="XMLID_527_" class="st1" d="M160.28,142.66l13-7.48c0.6-0.35,1.1-0.1,1.1,0.55s-0.49,1.47-1.1,1.82l-13,7.48
					c-0.6,0.35-1.1,0.1-1.1-0.55C159.19,143.82,159.68,143.01,160.28,142.66z"/>
				<path id="XMLID_1125_" class="st12" d="M160.28,142.66l13-7.48c0.6-0.35,1.1-0.1,1.1,0.55s-0.49,1.47-1.1,1.82l-13,7.48
					c-0.6,0.35-1.1,0.1-1.1-0.55C159.19,143.82,159.68,143.01,160.28,142.66z"/>
			</g>
			<g id="XMLID_520_">
				<path id="XMLID_524_" class="st11" d="M121.5,212.42l63.3-36.5c0.6-0.35,1.1-0.1,1.1,0.55c0,0.66-0.49,1.47-1.1,1.82l-63.3,36.5
					c-0.61,0.35-1.1,0.1-1.1-0.55C120.41,213.59,120.9,212.77,121.5,212.42z"/>
			</g>
			<g id="XMLID_514_">
				<path id="XMLID_515_" class="st11" d="M105.84,231.19l96.22-55.69c0.61-0.35,1.1-0.1,1.1,0.55c0,0.66-0.49,1.47-1.1,1.82
					l-96.22,55.69c-0.6,0.35-1.1,0.1-1.1-0.55C104.74,232.36,105.23,231.54,105.84,231.19z"/>
			</g>
			<g id="XMLID_510_">
				<path id="XMLID_511_" class="st11" d="M189.05,173.47l13-7.48c0.6-0.35,1.1-0.1,1.1,0.55c0,0.66-0.49,1.47-1.1,1.82l-13,7.48
					c-0.6,0.35-1.1,0.1-1.1-0.55C187.96,174.64,188.45,173.82,189.05,173.47z"/>
			</g>
			<g id="XMLID_507_">
				<path id="XMLID_1165_" class="st1" d="M122.28,174.09l50.2-29c0.61-0.35,1.1-0.1,1.1,0.55c0,0.66-0.49,1.47-1.1,1.82l-50.2,29
					c-0.61,0.35-1.1,0.1-1.1-0.55C121.18,175.25,121.67,174.44,122.28,174.09z"/>
				<path id="XMLID_1164_" class="st12" d="M122.28,174.09l50.2-29c0.61-0.35,1.1-0.1,1.1,0.55c0,0.66-0.49,1.47-1.1,1.82l-50.2,29
					c-0.61,0.35-1.1,0.1-1.1-0.55C121.18,175.25,121.67,174.44,122.28,174.09z"/>
			</g>
			<g id="XMLID_1157_">
				<path id="XMLID_1159_" class="st1" d="M176.72,142.64l13-7.48c0.6-0.35,1.1-0.1,1.1,0.55c0,0.66-0.49,1.47-1.1,1.82l-13,7.48
					c-0.6,0.35-1.1,0.1-1.1-0.55C175.63,143.81,176.12,142.99,176.72,142.64z"/>
				<path id="XMLID_1158_" class="st12" d="M176.72,142.64l13-7.48c0.6-0.35,1.1-0.1,1.1,0.55c0,0.66-0.49,1.47-1.1,1.82l-13,7.48
					c-0.6,0.35-1.1,0.1-1.1-0.55C175.63,143.81,176.12,142.99,176.72,142.64z"/>
			</g>
		</g>
	</g>
</g>
<g id="Sign">
	<g id="Alert_1_">
		<g>
			<path class="st1" d="M128.61,283.25l-18.72-32.42c-1.13-1.95-2.37-3.26-3.62-3.95c-0.69-0.38-3.5-2.04-4.22-2.45
				c-2.92-1.65-5.9,0.06-7.61,5.02l-23.4,67.54c-1.34,3.86-0.96,6.41,0.71,7.32c0.71,0.39,3.44,1.96,4.13,2.39
				c1.37,0.85,3.69,0.51,6.71-1.23l41.07-23.71C130.13,298.01,132.35,289.73,128.61,283.25z"/>
			<path class="st13" d="M128.61,283.25l-18.72-32.42c-1.13-1.95-2.37-3.26-3.62-3.95c-0.69-0.38-3.5-2.04-4.22-2.45
				c-2.92-1.65-5.9,0.06-7.61,5.02l-23.4,67.54c-1.34,3.86-0.96,6.41,0.71,7.32c0.71,0.39,3.44,1.96,4.13,2.39
				c1.37,0.85,3.69,0.51,6.71-1.23l41.07-23.71C130.13,298.01,132.35,289.73,128.61,283.25z"/>
			<path class="st1" d="M98.69,251.9l-23.4,67.54c-2.45,7.07,0.82,9.76,7.29,6.02l41.07-23.71c6.48-3.74,8.7-12.02,4.96-18.5
				l-18.72-32.42C106.15,244.35,101.14,244.83,98.69,251.9z"/>
		</g>
		<g>
			<path class="st9" d="M105.55,292.7l-3.35,1.93c-0.61,0.35-1.13,0.07-1.17-0.63l-1.36-25.04c-0.04-0.7,0.42-1.55,1.03-1.9
				l6.33-3.66c0.61-0.35,1.07-0.07,1.03,0.63l-1.36,26.77C106.68,291.5,106.16,292.35,105.55,292.7z"/>
			<path class="st9" d="M103.88,306.17c-2.13,1.23-3.41-0.36-3.41-2.58c0-2.84,1.75-5.56,3.41-6.52c2.13-1.23,3.41,0.36,3.41,2.58
				C107.29,302.49,105.54,305.21,103.88,306.17z"/>
		</g>
	</g>
</g>
<g id="Card">
	<g id="Card_2_">
		<g>
			<path class="st1" d="M105.35,383.47l0-26.81l-2.39-2.09l0.01,27.09c0,0.98,0.35,1.6,0.83,1.97c0.49,0.38,2.29,1.74,2.29,1.74
				C106.08,385.36,105.35,383.5,105.35,383.47z"/>
			<path class="st14" d="M105.35,383.47l0.01-26.81l-2.39-2.09v27.09c0,0.98,0.35,1.6,0.83,1.97c0.49,0.38,2.29,1.74,2.29,1.74
				C106.08,385.36,105.35,383.5,105.35,383.47z"/>
			<g>
				<path class="st1" d="M105.36,356.67l0.01,23.35v3.45c0,1.81,1.1,2.64,2.46,1.86l56.55-32.65c0.02-0.01,0.04-0.03,0.06-0.04
					c1.32-0.8,2.4-2.87,2.4-4.66l0-26.81C166.84,321.17,105.36,356.64,105.36,356.67z"/>
			</g>
			<path class="st8" d="M105.36,356.67l0.01,23.35v3.45c0,1.81,1.1,2.64,2.46,1.86l56.55-32.65c0.02-0.01,0.04-0.03,0.06-0.04
				c1.32-0.8,2.4-2.87,2.4-4.66l0-26.81C166.84,321.17,105.36,356.64,105.36,356.67z"/>
		</g>
		<g>
			<g>
				<path class="st4" d="M105.36,356.67l0-14.35c0-0.02,0-0.05,0.01-0.09c0.02-1.77,1.12-3.83,2.45-4.61l56.56-32.65
					c1.35-0.78,2.46,0.04,2.46,1.86l0,14.35L105.36,356.67z"/>
			</g>
			<path class="st9" d="M163.6,303.03c-0.42-0.3-1-0.23-1.62,0.12l-56.55,32.66c-0.85,0.48-1.6,1.49-2.04,2.61v0
				c-0.27,0.68-0.42,1.4-0.42,2.08v14.36l2.38,1.8l0.01-0.35l0-1.92v-12.09c0-0.68,0.15-1.4,0.42-2.07l0,0
				c0.44-1.13,1.19-2.13,2.04-2.62l56.55-32.65c0.02-0.01,1.45-0.19,1.47-0.2C165.84,304.76,164.18,303.44,163.6,303.03z"/>
		</g>
		<g id="XMLID_1219_">
			<path class="st7" d="M111.68,363.34l-1.09,0.63c-0.05,0.03-0.09,0.03-0.13,0.01c-0.04-0.02-0.05-0.06-0.05-0.12
				s0.02-0.12,0.05-0.18c0.04-0.06,0.08-0.11,0.13-0.14l0.36-0.21v-2.1c0-0.12-0.03-0.19-0.1-0.24s-0.16-0.03-0.25,0.02
				c0,0,0,0-0.01,0c-0.05,0.03-0.09,0.03-0.13,0.01c-0.04-0.02-0.05-0.06-0.05-0.12c0-0.06,0.02-0.12,0.05-0.18s0.08-0.11,0.13-0.14
				v0v0c0.2-0.12,0.37-0.13,0.52-0.05c0.14,0.08,0.21,0.24,0.21,0.47l0,2.1l0.36-0.21c0.05-0.03,0.09-0.03,0.13-0.01
				c0.04,0.02,0.05,0.06,0.05,0.12c0,0.06-0.02,0.12-0.05,0.18C111.78,363.27,111.73,363.32,111.68,363.34z"/>
			<path class="st7" d="M114.06,360.71l-0.73,0.42c-0.1,0.06-0.19,0.15-0.26,0.27c-0.07,0.12-0.11,0.24-0.11,0.36v0.32
				c0,0.03,0.01,0.05,0.03,0.06c0.02,0.01,0.04,0.01,0.06-0.01l1.55-0.9c0.05-0.03,0.09-0.03,0.13-0.01
				c0.04,0.02,0.05,0.06,0.05,0.12c0,0.06-0.02,0.12-0.05,0.18c-0.04,0.06-0.08,0.11-0.13,0.13l-1.82,1.05
				c-0.05,0.03-0.09,0.03-0.13,0.01c-0.04-0.02-0.05-0.06-0.05-0.12v-0.63c0-0.23,0.07-0.47,0.21-0.72
				c0.14-0.25,0.32-0.43,0.52-0.54l0.73-0.42c0.1-0.06,0.19-0.15,0.26-0.27c0.07-0.12,0.11-0.24,0.11-0.36l0-0.42
				c0-0.12-0.04-0.19-0.11-0.24c-0.07-0.04-0.16-0.03-0.26,0.03l-0.73,0.42c-0.1,0.06-0.19,0.15-0.26,0.27
				c-0.07,0.12-0.11,0.24-0.11,0.36c0,0.06-0.02,0.12-0.05,0.18c-0.04,0.06-0.08,0.11-0.13,0.13c-0.05,0.03-0.09,0.03-0.13,0.01
				c-0.04-0.02-0.05-0.06-0.05-0.12c0-0.23,0.07-0.47,0.21-0.72c0.14-0.25,0.32-0.43,0.52-0.54l0.73-0.42
				c0.2-0.12,0.38-0.13,0.52-0.05c0.14,0.08,0.21,0.24,0.21,0.47v0.42c0,0.23-0.07,0.47-0.21,0.72
				C114.43,360.41,114.26,360.6,114.06,360.71z"/>
			<path class="st7" d="M117.7,358.82v0.21c0,0.23-0.07,0.47-0.21,0.72c-0.14,0.25-0.31,0.43-0.52,0.54l-0.73,0.42
				c-0.2,0.12-0.37,0.13-0.52,0.05c-0.14-0.08-0.21-0.24-0.21-0.47c0-0.06,0.02-0.12,0.05-0.18c0.04-0.06,0.08-0.11,0.13-0.14
				c0.05-0.03,0.09-0.03,0.13-0.01c0.04,0.02,0.06,0.06,0.06,0.12c0,0.12,0.04,0.19,0.11,0.24c0.07,0.04,0.16,0.03,0.26-0.03
				l0.73-0.42c0.1-0.06,0.19-0.15,0.26-0.27c0.07-0.12,0.11-0.24,0.11-0.36v-0.21c0-0.12-0.04-0.19-0.11-0.24
				c-0.07-0.04-0.16-0.03-0.26,0.03l-0.18,0.11c-0.05,0.03-0.09,0.03-0.13,0.01c-0.04-0.02-0.05-0.06-0.05-0.12
				c0-0.06,0.02-0.12,0.05-0.18c0.04-0.06,0.08-0.11,0.13-0.14l0.18-0.11c0.1-0.06,0.19-0.15,0.26-0.27
				c0.07-0.12,0.11-0.24,0.11-0.36v-0.21c0-0.12-0.04-0.19-0.11-0.24c-0.07-0.04-0.16-0.03-0.26,0.03l-0.73,0.42
				c-0.1,0.06-0.19,0.15-0.26,0.27c-0.07,0.12-0.11,0.24-0.11,0.36c0,0.06-0.02,0.12-0.06,0.18c-0.04,0.06-0.08,0.11-0.13,0.14
				c-0.05,0.03-0.09,0.03-0.13,0.01c-0.03-0.02-0.05-0.06-0.05-0.12c0-0.23,0.07-0.47,0.21-0.72c0.14-0.25,0.31-0.43,0.52-0.54
				l0.73-0.42c0.2-0.12,0.37-0.13,0.52-0.05c0.14,0.08,0.21,0.24,0.21,0.47v0.21c0,0.12-0.02,0.25-0.07,0.39
				c-0.04,0.14-0.11,0.26-0.18,0.39c0.08,0.04,0.14,0.09,0.18,0.18C117.68,358.59,117.7,358.7,117.7,358.82z"/>
			<path class="st7" d="M120.56,358.16c-0.04,0.06-0.08,0.11-0.13,0.14c-0.05,0.03-0.09,0.03-0.13,0.01
				c-0.04-0.02-0.05-0.06-0.05-0.12l0-1.17c-0.11,0.14-0.24,0.25-0.36,0.33l-0.73,0.42c-0.2,0.12-0.37,0.13-0.52,0.05
				c-0.14-0.08-0.21-0.24-0.21-0.47v-1.05c0-0.06,0.02-0.12,0.05-0.18c0.04-0.06,0.08-0.11,0.13-0.14c0.05-0.03,0.09-0.03,0.13-0.01
				c0.04,0.02,0.05,0.06,0.05,0.12v1.05c0,0.12,0.04,0.19,0.11,0.24c0.07,0.04,0.16,0.03,0.26-0.03l0.73-0.42
				c0.1-0.06,0.19-0.15,0.26-0.27s0.11-0.24,0.11-0.36v-1.05c0-0.06,0.02-0.12,0.05-0.18c0.04-0.06,0.08-0.11,0.13-0.14
				c0.05-0.03,0.09-0.03,0.13-0.01c0.04,0.02,0.05,0.06,0.05,0.12l0,2.95C120.62,358.03,120.6,358.09,120.56,358.16z"/>
			<path class="st7" d="M124.62,353.66c0,0.03,0.01,0.05,0.03,0.06c0.02,0.01,0.04,0.01,0.06-0.01l1-0.58
				c0.2-0.12,0.37-0.13,0.52-0.05c0.14,0.08,0.21,0.24,0.21,0.47v0.42c0,0.23-0.07,0.47-0.21,0.72c-0.14,0.25-0.31,0.43-0.52,0.54
				l-0.73,0.42c-0.2,0.12-0.37,0.13-0.52,0.05c-0.14-0.08-0.21-0.24-0.21-0.47c0-0.06,0.02-0.12,0.05-0.18
				c0.04-0.06,0.08-0.11,0.13-0.14c0.05-0.03,0.09-0.03,0.13-0.01c0.04,0.02,0.05,0.06,0.05,0.12c0,0.12,0.04,0.19,0.11,0.24
				c0.07,0.04,0.16,0.03,0.26-0.03l0.73-0.42c0.1-0.06,0.19-0.15,0.26-0.27c0.07-0.12,0.11-0.24,0.11-0.36v-0.42
				c0-0.12-0.04-0.19-0.11-0.24c-0.07-0.04-0.16-0.03-0.26,0.03l-1.09,0.63c-0.1,0.06-0.19,0.07-0.26,0.03
				c-0.07-0.04-0.11-0.12-0.11-0.24v-1.05c0-0.06,0.02-0.12,0.05-0.18c0.04-0.06,0.08-0.11,0.13-0.14l1.82-1.05
				c0.05-0.03,0.09-0.03,0.13-0.01c0.04,0.02,0.05,0.06,0.05,0.12c0,0.06-0.02,0.12-0.05,0.18c-0.04,0.06-0.08,0.11-0.13,0.13
				l-1.55,0.89c-0.02,0.01-0.05,0.04-0.06,0.07c-0.02,0.03-0.03,0.06-0.03,0.09V353.66z"/>
			<path class="st7" d="M127.9,351.88l0.73-0.42c0.2-0.12,0.38-0.13,0.52-0.05c0.14,0.08,0.21,0.24,0.21,0.47v0.42
				c0,0.23-0.07,0.47-0.21,0.72c-0.14,0.25-0.32,0.43-0.52,0.55l-0.73,0.42c-0.2,0.12-0.37,0.13-0.52,0.05
				c-0.14-0.08-0.21-0.24-0.21-0.47v-1.68c0-0.23,0.07-0.47,0.21-0.72c0.14-0.25,0.31-0.43,0.52-0.54l0.73-0.42
				c0.2-0.12,0.38-0.13,0.52-0.05c0.14,0.08,0.21,0.24,0.21,0.47c0,0.06-0.02,0.12-0.06,0.18c-0.04,0.06-0.08,0.11-0.13,0.14
				c-0.05,0.03-0.09,0.03-0.13,0.01c-0.04-0.02-0.05-0.06-0.05-0.12c0-0.12-0.04-0.19-0.11-0.24c-0.07-0.04-0.16-0.03-0.26,0.03
				l-0.73,0.42c-0.1,0.06-0.19,0.15-0.26,0.27c-0.07,0.12-0.11,0.24-0.11,0.36v0.54C127.65,352.06,127.77,351.95,127.9,351.88z
				 M127.54,353.35c0,0.12,0.04,0.19,0.11,0.24c0.07,0.04,0.16,0.03,0.26-0.03l0.73-0.42c0.1-0.06,0.19-0.15,0.26-0.27
				c0.07-0.12,0.11-0.24,0.11-0.36v-0.42c0-0.12-0.04-0.19-0.11-0.24c-0.07-0.04-0.16-0.03-0.26,0.03l-0.73,0.42
				c-0.1,0.06-0.19,0.15-0.26,0.27c-0.07,0.12-0.11,0.24-0.11,0.36V353.35z"/>
			<path class="st7" d="M132.19,349.51l-0.82,2.26c0,0-0.01,0.01-0.01,0.03c-0.01,0.02-0.01,0.03-0.02,0.04
				c0,0.01-0.01,0.02-0.02,0.04c-0.01,0.02-0.01,0.04-0.02,0.05c-0.01,0.01-0.01,0.03-0.02,0.05c-0.01,0.02-0.02,0.03-0.03,0.04
				s-0.02,0.02-0.03,0.04c-0.01,0.01-0.02,0.02-0.04,0.03c-0.05,0.03-0.09,0.04-0.13,0.03c-0.04-0.01-0.05-0.06-0.05-0.13
				c0-0.04,0.03-0.13,0.09-0.26c0.26-0.73,0.51-1.43,0.74-2.11c0.02-0.07,0.04-0.14,0.05-0.22c0.01-0.08,0.02-0.14,0.02-0.18l0-0.07
				c0-0.12-0.04-0.19-0.11-0.24c-0.07-0.04-0.16-0.03-0.26,0.03l-0.36,0.21l-0.18,0.11l-0.73,0.42c-0.05,0.03-0.1,0.03-0.13,0.01
				c-0.04-0.02-0.05-0.06-0.05-0.12c0-0.06,0.02-0.12,0.05-0.18c0.04-0.06,0.08-0.11,0.13-0.14l0.73-0.42l0.18-0.11l0.36-0.21
				c0.2-0.12,0.37-0.13,0.52-0.05c0.14,0.08,0.21,0.24,0.21,0.47c0,0.09-0.01,0.19-0.03,0.31
				C132.22,349.37,132.2,349.45,132.19,349.51z"/>
			<path class="st7" d="M135.19,348.72v0.21c0,0.23-0.07,0.47-0.21,0.72c-0.14,0.25-0.31,0.43-0.52,0.54l-0.73,0.42
				c-0.2,0.12-0.37,0.13-0.52,0.05c-0.14-0.08-0.21-0.24-0.21-0.47v-0.21c0-0.12,0.02-0.25,0.07-0.39c0.04-0.13,0.1-0.26,0.18-0.39
				c-0.08-0.03-0.14-0.09-0.18-0.18c-0.04-0.08-0.07-0.19-0.07-0.31l0-0.21c0-0.23,0.07-0.47,0.21-0.72
				c0.14-0.25,0.31-0.43,0.52-0.54l0.73-0.42c0.2-0.12,0.37-0.13,0.52-0.05c0.14,0.08,0.21,0.24,0.21,0.47v0.21
				c0,0.12-0.02,0.25-0.07,0.39c-0.04,0.14-0.1,0.26-0.18,0.39c0.08,0.04,0.14,0.09,0.18,0.18
				C135.17,348.49,135.19,348.6,135.19,348.72z M134.83,347.46c0-0.12-0.04-0.19-0.11-0.24c-0.07-0.04-0.16-0.03-0.26,0.03
				l-0.73,0.42c-0.1,0.06-0.19,0.15-0.26,0.27c-0.07,0.12-0.11,0.24-0.11,0.36v0.21c0,0.12,0.04,0.19,0.11,0.24
				c0.07,0.04,0.16,0.03,0.26-0.03l0.73-0.42c0.1-0.06,0.19-0.15,0.26-0.27c0.07-0.12,0.11-0.24,0.11-0.36V347.46z M134.83,348.93
				c0-0.12-0.04-0.19-0.11-0.24c-0.07-0.04-0.16-0.03-0.26,0.03l-0.73,0.42c-0.1,0.06-0.19,0.15-0.26,0.27
				c-0.07,0.12-0.11,0.24-0.11,0.36v0.21c0,0.12,0.04,0.19,0.11,0.24c0.07,0.04,0.16,0.03,0.26-0.03l0.73-0.42
				c0.1-0.06,0.19-0.15,0.26-0.27c0.07-0.12,0.11-0.24,0.11-0.36V348.93z"/>
			<path class="st7" d="M140.29,346.83l-0.73,0.42c-0.2,0.12-0.37,0.13-0.52,0.05c-0.14-0.08-0.21-0.24-0.21-0.47
				c0-0.06,0.02-0.12,0.05-0.18c0.04-0.06,0.08-0.11,0.13-0.14c0.05-0.03,0.09-0.03,0.13-0.01c0.04,0.02,0.05,0.06,0.05,0.12
				c0,0.12,0.04,0.19,0.11,0.24c0.07,0.04,0.16,0.03,0.26-0.03l0.73-0.42c0.1-0.06,0.19-0.15,0.26-0.27
				c0.07-0.12,0.11-0.24,0.11-0.36v-0.54c-0.11,0.14-0.24,0.25-0.37,0.33l-0.73,0.42c-0.2,0.12-0.37,0.13-0.52,0.05
				c-0.14-0.08-0.21-0.24-0.21-0.47v-0.42c0-0.23,0.07-0.47,0.21-0.72c0.14-0.25,0.31-0.43,0.52-0.54l0.73-0.42
				c0.2-0.12,0.38-0.13,0.52-0.05c0.14,0.08,0.21,0.24,0.21,0.47v1.68c0,0.23-0.07,0.47-0.21,0.72
				C140.67,346.53,140.5,346.71,140.29,346.83z M140.66,344.09c0-0.12-0.04-0.19-0.11-0.24s-0.16-0.03-0.26,0.03l-0.73,0.42
				c-0.1,0.06-0.19,0.15-0.26,0.27c-0.07,0.12-0.11,0.24-0.11,0.36v0.42c0,0.12,0.04,0.19,0.11,0.24c0.07,0.04,0.16,0.03,0.26-0.03
				l0.73-0.42c0.1-0.06,0.19-0.15,0.26-0.27c0.07-0.12,0.11-0.24,0.11-0.36L140.66,344.09z"/>
			<path class="st7" d="M143.02,345.25l-1.09,0.63c-0.05,0.03-0.09,0.03-0.13,0.01c-0.04-0.02-0.05-0.06-0.05-0.12
				c0-0.06,0.02-0.12,0.05-0.18c0.04-0.06,0.08-0.11,0.13-0.14l0.36-0.21v-2.1c0-0.12-0.04-0.19-0.11-0.24
				c-0.07-0.04-0.16-0.03-0.25,0.02c0,0,0,0-0.01,0c-0.05,0.03-0.09,0.03-0.13,0.01c-0.04-0.02-0.05-0.06-0.05-0.12
				c0-0.06,0.02-0.12,0.05-0.18c0.04-0.06,0.08-0.11,0.13-0.14v0v0c0.2-0.12,0.37-0.13,0.52-0.05c0.14,0.08,0.21,0.24,0.21,0.47v2.1
				l0.36-0.21c0.05-0.03,0.09-0.03,0.13-0.01c0.04,0.02,0.05,0.06,0.05,0.12c0,0.06-0.02,0.12-0.05,0.18
				C143.12,345.18,143.07,345.22,143.02,345.25z"/>
			<path class="st7" d="M145.4,343.88l-0.73,0.42c-0.2,0.12-0.37,0.13-0.52,0.05c-0.14-0.08-0.21-0.24-0.21-0.47v-1.68
				c0-0.23,0.07-0.47,0.21-0.72c0.14-0.25,0.31-0.43,0.52-0.54l0.73-0.42c0.2-0.12,0.37-0.13,0.52-0.05
				c0.14,0.08,0.21,0.24,0.21,0.47v1.68c0,0.23-0.07,0.47-0.21,0.72C145.77,343.58,145.6,343.77,145.4,343.88z M144.67,343.88
				l0.73-0.42c0.06-0.03,0.12-0.08,0.17-0.15l-1.27-1.28v1.65c0,0.12,0.04,0.19,0.11,0.24
				C144.48,343.95,144.57,343.94,144.67,343.88z M145.4,340.94l-0.73,0.42c-0.06,0.03-0.12,0.09-0.17,0.15l1.27,1.28v-1.65
				c0-0.12-0.04-0.19-0.11-0.24C145.58,340.87,145.5,340.88,145.4,340.94z"/>
			<path class="st7" d="M148.13,342.3l-1.09,0.63c-0.05,0.03-0.09,0.03-0.13,0.01c-0.04-0.02-0.05-0.06-0.05-0.12
				c0-0.06,0.02-0.12,0.05-0.18c0.04-0.06,0.08-0.11,0.13-0.14l0.36-0.21l0-2.1c0-0.12-0.03-0.19-0.1-0.24
				c-0.07-0.04-0.16-0.03-0.25,0.02c0,0,0,0-0.01,0c-0.05,0.03-0.09,0.03-0.13,0.01c-0.04-0.02-0.05-0.06-0.05-0.12
				c0-0.06,0.02-0.12,0.05-0.18c0.04-0.06,0.08-0.11,0.13-0.14v0v0c0.2-0.12,0.37-0.13,0.52-0.05c0.14,0.08,0.21,0.24,0.21,0.47
				l0,2.1l0.36-0.21c0.05-0.03,0.09-0.03,0.13-0.01c0.04,0.02,0.05,0.06,0.05,0.12s-0.02,0.12-0.05,0.18
				C148.22,342.23,148.18,342.28,148.13,342.3z"/>
			<path class="st7" d="M153.23,339.36l-1.09,0.63c-0.05,0.03-0.09,0.03-0.13,0.01c-0.04-0.02-0.05-0.06-0.05-0.12
				c0-0.06,0.02-0.12,0.05-0.18c0.04-0.06,0.08-0.11,0.13-0.14l0.36-0.21v-2.1c0-0.12-0.04-0.19-0.11-0.24
				c-0.07-0.04-0.15-0.03-0.25,0.02c0,0,0,0-0.01,0c-0.05,0.03-0.09,0.03-0.13,0.01c-0.04-0.02-0.05-0.06-0.05-0.12
				c0-0.06,0.02-0.12,0.05-0.18c0.04-0.06,0.08-0.11,0.13-0.14v0v0c0.2-0.12,0.37-0.13,0.52-0.05c0.14,0.08,0.21,0.24,0.21,0.47v2.1
				l0.36-0.21c0.05-0.03,0.09-0.03,0.13-0.01c0.04,0.02,0.05,0.06,0.05,0.12c0,0.06-0.02,0.12-0.05,0.18
				C153.32,339.29,153.28,339.33,153.23,339.36z"/>
			<path class="st7" d="M155.6,336.73l-0.73,0.42c-0.1,0.06-0.19,0.15-0.26,0.27c-0.07,0.12-0.11,0.24-0.11,0.36l0,0.32
				c0,0.03,0.01,0.05,0.03,0.06c0.02,0.01,0.04,0.01,0.06-0.01l1.55-0.9c0.05-0.03,0.09-0.03,0.13-0.01
				c0.04,0.02,0.05,0.06,0.05,0.12c0,0.06-0.02,0.12-0.05,0.18s-0.08,0.11-0.13,0.13l-1.82,1.05c-0.05,0.03-0.09,0.03-0.13,0.01
				c-0.04-0.02-0.05-0.06-0.05-0.12l0-0.63c0-0.23,0.07-0.47,0.21-0.72c0.14-0.25,0.31-0.43,0.52-0.54l0.73-0.42
				c0.1-0.06,0.19-0.15,0.26-0.27c0.07-0.12,0.11-0.24,0.11-0.36v-0.42c0-0.12-0.04-0.19-0.11-0.24c-0.07-0.04-0.16-0.03-0.26,0.03
				l-0.73,0.42c-0.1,0.06-0.19,0.15-0.26,0.27c-0.07,0.12-0.11,0.24-0.11,0.36c0,0.06-0.02,0.12-0.05,0.18
				c-0.04,0.06-0.08,0.11-0.13,0.13c-0.05,0.03-0.09,0.03-0.13,0.01c-0.04-0.02-0.05-0.06-0.05-0.12c0-0.23,0.07-0.47,0.21-0.72
				c0.14-0.25,0.31-0.43,0.52-0.54l0.73-0.42c0.2-0.12,0.38-0.13,0.52-0.05c0.14,0.08,0.21,0.24,0.21,0.47v0.42
				c0,0.23-0.07,0.47-0.21,0.72C155.97,336.43,155.8,336.61,155.6,336.73z"/>
			<path class="st7" d="M158.33,336.41l-1.09,0.63c-0.05,0.03-0.09,0.03-0.13,0.01c-0.04-0.02-0.05-0.06-0.05-0.12
				c0-0.06,0.02-0.12,0.05-0.18c0.04-0.06,0.08-0.11,0.13-0.14l0.36-0.21l0-2.1c0-0.12-0.04-0.19-0.11-0.24s-0.16-0.03-0.25,0.02
				c0,0,0,0-0.01,0c-0.05,0.03-0.09,0.03-0.13,0.01c-0.04-0.02-0.05-0.06-0.05-0.12c0-0.06,0.02-0.12,0.05-0.18s0.08-0.11,0.13-0.14
				v0v0c0.2-0.12,0.37-0.13,0.52-0.05c0.14,0.08,0.21,0.24,0.21,0.47l0,2.1l0.36-0.21c0.05-0.03,0.09-0.03,0.13-0.01
				c0.04,0.02,0.05,0.06,0.05,0.12c0,0.06-0.02,0.12-0.05,0.18C158.42,336.34,158.38,336.39,158.33,336.41z"/>
			<path class="st7" d="M161.43,333.57l0,0.21c0,0.23-0.07,0.47-0.21,0.72c-0.14,0.25-0.31,0.43-0.52,0.54l-0.73,0.42
				c-0.2,0.12-0.37,0.13-0.52,0.05c-0.14-0.08-0.21-0.24-0.21-0.47c0-0.06,0.02-0.12,0.05-0.18c0.04-0.06,0.08-0.11,0.13-0.14
				c0.05-0.03,0.09-0.03,0.13-0.01c0.04,0.02,0.05,0.06,0.05,0.12c0,0.12,0.04,0.19,0.11,0.24c0.07,0.04,0.16,0.03,0.26-0.03
				l0.73-0.42c0.1-0.06,0.19-0.15,0.26-0.27c0.07-0.12,0.11-0.24,0.11-0.36v-0.21c0-0.12-0.04-0.19-0.11-0.24
				c-0.07-0.04-0.16-0.03-0.26,0.03l-0.18,0.11c-0.05,0.03-0.09,0.03-0.13,0.01c-0.04-0.02-0.05-0.06-0.05-0.12
				c0-0.06,0.02-0.12,0.05-0.18c0.04-0.06,0.08-0.11,0.13-0.14l0.18-0.11c0.1-0.06,0.19-0.15,0.26-0.27
				c0.07-0.12,0.11-0.24,0.11-0.36v-0.21c0-0.12-0.04-0.19-0.11-0.24c-0.07-0.04-0.16-0.03-0.26,0.03l-0.73,0.42
				c-0.1,0.06-0.19,0.15-0.26,0.27c-0.07,0.12-0.11,0.24-0.11,0.36c0,0.06-0.02,0.12-0.05,0.18c-0.04,0.06-0.08,0.11-0.13,0.14
				c-0.05,0.03-0.09,0.03-0.13,0.01c-0.04-0.02-0.05-0.06-0.05-0.12c0-0.23,0.07-0.47,0.21-0.72c0.14-0.25,0.31-0.43,0.52-0.54
				l0.73-0.42c0.2-0.12,0.37-0.13,0.52-0.05c0.14,0.08,0.21,0.24,0.21,0.47v0.21c0,0.12-0.02,0.25-0.07,0.39
				c-0.04,0.14-0.1,0.26-0.18,0.39c0.08,0.04,0.14,0.09,0.18,0.18C161.41,333.35,161.43,333.45,161.43,333.57z"/>
		</g>
		<g>
			<g id="XMLID_1218_">
				<path class="st7" d="M111.15,370.04l-0.64,0.37c-0.03,0.02-0.05,0.02-0.07,0.01c-0.02-0.01-0.03-0.03-0.03-0.07
					s0.01-0.07,0.03-0.11c0.02-0.04,0.05-0.06,0.07-0.08l0.21-0.12v-1.23c0-0.07-0.02-0.11-0.06-0.14
					c-0.04-0.02-0.09-0.02-0.15,0.01c0,0,0,0,0,0c-0.03,0.02-0.06,0.02-0.08,0.01c-0.02-0.01-0.03-0.03-0.03-0.07
					c0-0.03,0.01-0.07,0.03-0.11c0.02-0.04,0.05-0.06,0.08-0.08v0v0c0.12-0.07,0.22-0.08,0.3-0.03c0.08,0.05,0.12,0.14,0.12,0.28
					v1.23l0.21-0.12c0.03-0.02,0.05-0.02,0.08-0.01c0.02,0.01,0.03,0.04,0.03,0.07c0,0.03-0.01,0.07-0.03,0.1
					C111.21,370,111.18,370.03,111.15,370.04z"/>
				<path class="st7" d="M112.54,368.51l-0.43,0.25c-0.06,0.03-0.11,0.09-0.15,0.16c-0.04,0.07-0.06,0.14-0.06,0.21l0,0.18
					c0,0.02,0,0.03,0.02,0.03c0.01,0.01,0.02,0,0.04,0l0.91-0.52c0.03-0.02,0.05-0.02,0.07-0.01c0.02,0.01,0.03,0.04,0.03,0.07
					s-0.01,0.07-0.03,0.1c-0.02,0.04-0.05,0.06-0.07,0.08l-1.07,0.62c-0.03,0.02-0.05,0.02-0.07,0.01
					c-0.02-0.01-0.03-0.03-0.03-0.07v-0.37c0-0.14,0.04-0.28,0.12-0.42c0.08-0.14,0.18-0.25,0.3-0.32l0.43-0.25
					c0.06-0.03,0.11-0.09,0.15-0.16c0.04-0.07,0.06-0.14,0.06-0.21v-0.25c0-0.07-0.02-0.11-0.06-0.14
					c-0.04-0.02-0.09-0.02-0.15,0.02l-0.43,0.25c-0.06,0.03-0.11,0.09-0.15,0.16c-0.04,0.07-0.06,0.14-0.06,0.21
					c0,0.03-0.01,0.07-0.03,0.11c-0.02,0.04-0.05,0.06-0.07,0.08c-0.03,0.02-0.05,0.02-0.08,0.01c-0.02-0.01-0.03-0.03-0.03-0.07
					c0-0.14,0.04-0.28,0.12-0.42c0.08-0.14,0.18-0.25,0.3-0.32l0.43-0.25c0.12-0.07,0.22-0.08,0.3-0.03
					c0.08,0.05,0.12,0.14,0.12,0.28v0.25c0,0.14-0.04,0.28-0.12,0.42C112.76,368.33,112.66,368.44,112.54,368.51z"/>
				<path class="st7" d="M115.09,367.03l-0.43,0.25c-0.06,0.03-0.11,0.09-0.15,0.16c-0.04,0.07-0.06,0.14-0.06,0.21v0.18
					c0,0.02,0,0.03,0.02,0.03c0.01,0.01,0.02,0.01,0.04,0l0.91-0.52c0.03-0.02,0.05-0.02,0.07-0.01c0.02,0.01,0.03,0.04,0.03,0.07
					c0,0.03-0.01,0.07-0.03,0.1c-0.02,0.04-0.05,0.06-0.07,0.08l-1.07,0.62c-0.03,0.02-0.05,0.02-0.07,0.01
					c-0.02-0.01-0.03-0.03-0.03-0.07l0-0.37c0-0.14,0.04-0.28,0.12-0.42c0.08-0.14,0.18-0.25,0.3-0.32l0.43-0.25
					c0.06-0.03,0.11-0.09,0.15-0.16c0.04-0.07,0.06-0.14,0.06-0.21l0-0.25c0-0.07-0.02-0.11-0.06-0.14
					c-0.04-0.02-0.09-0.02-0.15,0.02l-0.43,0.25c-0.06,0.03-0.11,0.09-0.15,0.16c-0.04,0.07-0.06,0.14-0.06,0.21
					c0,0.03-0.01,0.07-0.03,0.11c-0.02,0.04-0.05,0.06-0.07,0.08c-0.03,0.02-0.05,0.02-0.08,0.01c-0.02-0.01-0.03-0.03-0.03-0.07
					c0-0.14,0.04-0.28,0.12-0.42c0.08-0.14,0.18-0.25,0.3-0.32l0.43-0.25c0.12-0.07,0.22-0.08,0.3-0.03
					c0.08,0.05,0.12,0.14,0.12,0.28v0.25c0,0.14-0.04,0.28-0.12,0.42C115.31,366.86,115.21,366.97,115.09,367.03z"/>
				<path class="st7" d="M117.22,365.93v0.12c0,0.14-0.04,0.28-0.12,0.42c-0.08,0.14-0.18,0.25-0.3,0.32l-0.43,0.25
					c-0.12,0.07-0.22,0.08-0.3,0.03c-0.08-0.05-0.12-0.14-0.12-0.28c0-0.03,0.01-0.07,0.03-0.1c0.02-0.04,0.05-0.06,0.07-0.08
					c0.03-0.02,0.05-0.02,0.08-0.01c0.02,0.01,0.03,0.03,0.03,0.07c0,0.07,0.02,0.11,0.06,0.14c0.04,0.02,0.09,0.02,0.15-0.01
					l0.43-0.25c0.06-0.03,0.11-0.09,0.15-0.16c0.04-0.07,0.06-0.14,0.06-0.21v-0.12c0-0.07-0.02-0.11-0.06-0.14
					c-0.04-0.02-0.09-0.02-0.15,0.01l-0.11,0.06c-0.03,0.02-0.06,0.02-0.08,0.01c-0.02-0.01-0.03-0.03-0.03-0.07
					c0-0.03,0.01-0.07,0.03-0.1c0.02-0.04,0.05-0.06,0.08-0.08l0.11-0.06c0.06-0.03,0.11-0.09,0.15-0.16
					c0.04-0.07,0.06-0.14,0.06-0.21v-0.12c0-0.07-0.02-0.11-0.06-0.14c-0.04-0.02-0.09-0.02-0.15,0.01l-0.43,0.25
					c-0.06,0.03-0.11,0.09-0.15,0.16c-0.04,0.07-0.06,0.14-0.06,0.21c0,0.03-0.01,0.07-0.03,0.11c-0.02,0.04-0.05,0.06-0.08,0.08
					c-0.03,0.02-0.05,0.02-0.07,0.01c-0.02-0.01-0.03-0.04-0.03-0.07c0-0.14,0.04-0.28,0.12-0.42c0.08-0.14,0.18-0.25,0.3-0.32
					l0.43-0.25c0.12-0.07,0.22-0.08,0.3-0.03c0.08,0.05,0.12,0.14,0.12,0.28l0,0.12c0,0.07-0.01,0.15-0.04,0.23
					c-0.03,0.08-0.06,0.15-0.11,0.23c0.04,0.02,0.08,0.06,0.11,0.1C117.21,365.8,117.22,365.86,117.22,365.93z"/>
			</g>
			<g id="XMLID_1217_">
				<path class="st7" d="M113.46,369.01C113.45,369.01,113.45,369.01,113.46,369.01c-0.05-0.01-0.08-0.05-0.07-0.1l0.26-2.27
					c0-0.04,0.04-0.07,0.08-0.06c0.04,0.01,0.07,0.05,0.06,0.1l-0.26,2.27C113.52,368.99,113.49,369.02,113.46,369.01z"/>
			</g>
		</g>
		<g>
			<g>
				<path class="st15" d="M163.15,341.92v6.97c0,0.52-0.31,1.12-0.71,1.35l-6.34,3.71c-0.39,0.23-0.7-0.01-0.7-0.53v-6.97
					c0-0.52,0.31-1.12,0.7-1.35c1.73-1,4.61-2.71,6.34-3.71C162.84,341.16,163.15,341.39,163.15,341.92z"/>
			</g>
			<g id="XMLID_1176_">
				<polygon class="st1" points="163.15,343.42 163.15,343.85 160.66,345.31 160.34,345.49 158.22,346.73 157.9,346.92 
					155.4,348.37 155.4,347.94 				"/>
			</g>
			<g id="XMLID_1141_">
				<polygon id="XMLID_1175_" class="st1" points="160.34,348.91 160.66,348.52 160.66,344.97 160.34,345.36 				"/>
			</g>
			<g id="XMLID_1123_">
				<polygon id="XMLID_1133_" class="st1" points="157.9,350.39 158.22,349.99 158.22,346.44 157.9,346.84 				"/>
			</g>
			<g id="XMLID_484_">
				<polygon class="st1" points="163.15,346.98 163.15,347.41 155.4,351.93 155.4,351.5 157.9,350.04 158.22,349.86 160.34,348.62 
					160.66,348.43 				"/>
			</g>
		</g>
		<path id="XMLID_1173_" class="st4" d="M140.89,357.75l-29.55,17.06c-0.51,0.3-0.93,1.09-0.93,1.78v0.17c0,0.69,0.42,1,0.93,0.7
			l29.55-17.06c0.51-0.3,0.93-1.09,0.93-1.78l0-0.17C141.82,357.77,141.41,357.45,140.89,357.75z"/>
		<g>
			<path class="st16" d="M111.95,345.43c0.01-0.07,0.03-0.13,0.06-0.18c0.03-0.05,0.07-0.09,0.11-0.11l0.47-0.27
				c0.04-0.02,0.08-0.03,0.11-0.01c0.03,0.02,0.05,0.06,0.04,0.12c-0.01,0.22-0.05,0.45-0.12,0.7c-0.07,0.25-0.17,0.5-0.31,0.75
				c-0.14,0.25-0.31,0.49-0.52,0.72c-0.21,0.23-0.47,0.43-0.77,0.6c-0.27,0.15-0.5,0.24-0.7,0.25c-0.2,0.01-0.38-0.03-0.52-0.14
				c-0.14-0.1-0.25-0.26-0.33-0.48c-0.08-0.21-0.13-0.47-0.14-0.77c-0.01-0.19-0.01-0.4-0.01-0.64c0-0.24,0-0.45,0.01-0.65
				c0.02-0.32,0.06-0.63,0.14-0.93c0.08-0.31,0.19-0.59,0.33-0.86c0.14-0.27,0.31-0.51,0.52-0.74c0.2-0.22,0.44-0.41,0.7-0.56
				c0.3-0.17,0.55-0.27,0.77-0.28c0.21-0.01,0.39,0.02,0.52,0.11c0.14,0.09,0.24,0.22,0.31,0.39c0.07,0.17,0.11,0.36,0.12,0.56
				c0,0.06-0.01,0.12-0.04,0.18c-0.03,0.06-0.07,0.1-0.11,0.12l-0.47,0.27c-0.04,0.02-0.08,0.03-0.11,0.01
				c-0.03-0.01-0.06-0.05-0.06-0.11c-0.01-0.09-0.04-0.18-0.08-0.25c-0.04-0.07-0.1-0.13-0.17-0.16c-0.07-0.03-0.16-0.04-0.28-0.03
				c-0.11,0.02-0.24,0.07-0.39,0.15c-0.15,0.09-0.28,0.19-0.39,0.32c-0.11,0.13-0.2,0.26-0.28,0.41c-0.07,0.15-0.13,0.3-0.17,0.47
				c-0.04,0.17-0.06,0.33-0.07,0.49c-0.01,0.2-0.01,0.42-0.01,0.65c0,0.24,0,0.45,0.01,0.64c0.01,0.16,0.03,0.3,0.07,0.42
				c0.04,0.12,0.1,0.21,0.17,0.26c0.07,0.06,0.17,0.09,0.28,0.08c0.11,0,0.24-0.05,0.39-0.13c0.15-0.09,0.28-0.19,0.39-0.3
				c0.11-0.11,0.2-0.23,0.28-0.35c0.08-0.12,0.13-0.24,0.18-0.36C111.91,345.66,111.94,345.54,111.95,345.43z"/>
			<path class="st16" d="M115.06,339.97c0.48-0.28,0.84-0.34,1.09-0.19c0.25,0.15,0.37,0.49,0.37,1.02c0,0.37-0.06,0.73-0.19,1.07
				c-0.13,0.34-0.32,0.64-0.57,0.92l0.79,1.44c0.01,0.02,0.02,0.05,0.02,0.08c0,0.04-0.01,0.09-0.04,0.14
				c-0.02,0.05-0.05,0.08-0.09,0.1l-0.49,0.28c-0.08,0.04-0.13,0.05-0.17,0.03c-0.04-0.03-0.06-0.06-0.08-0.09l-0.75-1.35
				l-0.77,0.44l0,1.79c0,0.06-0.02,0.11-0.05,0.17c-0.03,0.06-0.07,0.1-0.11,0.12l-0.47,0.27c-0.04,0.02-0.08,0.03-0.11,0
				c-0.03-0.02-0.05-0.06-0.05-0.12l0-4.96c0-0.06,0.02-0.11,0.05-0.17c0.03-0.06,0.07-0.1,0.11-0.13L115.06,339.97z M114.19,342.89
				l0.83-0.48c0.22-0.13,0.39-0.28,0.52-0.46c0.13-0.18,0.2-0.41,0.2-0.7c0-0.29-0.06-0.44-0.2-0.46c-0.13-0.02-0.31,0.03-0.52,0.16
				l-0.83,0.48L114.19,342.89z"/>
			<path class="st16" d="M119.96,341.56c0.04-0.02,0.08-0.02,0.11,0c0.03,0.02,0.05,0.06,0.05,0.12l0,0.54
				c0,0.06-0.02,0.11-0.05,0.17c-0.03,0.06-0.07,0.1-0.11,0.12l-2.53,1.46c-0.04,0.02-0.08,0.03-0.11,0
				c-0.03-0.02-0.05-0.06-0.05-0.12l0-4.96c0-0.06,0.02-0.11,0.05-0.17c0.03-0.06,0.07-0.1,0.11-0.13l2.48-1.43
				c0.04-0.02,0.08-0.02,0.11,0c0.03,0.02,0.05,0.06,0.05,0.12l0,0.55c0,0.06-0.02,0.11-0.05,0.17c-0.03,0.06-0.07,0.1-0.11,0.12
				l-1.86,1.07l0,1.22l1.73-1c0.04-0.02,0.08-0.03,0.11,0c0.03,0.02,0.05,0.06,0.05,0.12l0,0.55c0,0.06-0.02,0.11-0.05,0.17
				c-0.03,0.06-0.07,0.1-0.11,0.12l-1.73,1l0,1.28L119.96,341.56z"/>
			<path class="st16" d="M122.4,335.73c0.28-0.16,0.53-0.26,0.74-0.28c0.21-0.02,0.38,0.02,0.52,0.12c0.14,0.1,0.25,0.26,0.32,0.48
				s0.12,0.48,0.14,0.8c0.02,0.37,0.02,0.75,0,1.14c-0.02,0.33-0.06,0.65-0.14,0.95c-0.08,0.31-0.18,0.59-0.32,0.85
				c-0.14,0.26-0.31,0.51-0.52,0.72c-0.21,0.22-0.45,0.41-0.72,0.57l-1.45,0.84c-0.04,0.02-0.08,0.02-0.11,0
				c-0.03-0.02-0.05-0.06-0.05-0.12l0-4.96c0-0.06,0.02-0.11,0.05-0.17c0.03-0.06,0.07-0.1,0.11-0.13L122.4,335.73z M123.35,337.3
				c-0.01-0.16-0.03-0.3-0.07-0.42c-0.04-0.12-0.1-0.21-0.18-0.27c-0.08-0.06-0.18-0.08-0.3-0.07c-0.12,0.01-0.26,0.06-0.43,0.16
				l-0.77,0.45l0,3.46l0.8-0.46c0.16-0.09,0.29-0.2,0.41-0.32c0.12-0.13,0.21-0.26,0.29-0.41c0.08-0.15,0.14-0.3,0.18-0.47
				c0.04-0.17,0.06-0.33,0.07-0.5C123.36,338.05,123.36,337.67,123.35,337.3z"/>
			<path class="st16" d="M125.03,339.58c-0.04,0.02-0.08,0.02-0.11,0c-0.03-0.02-0.05-0.06-0.05-0.12l0-4.96
				c0-0.06,0.02-0.11,0.05-0.17c0.03-0.06,0.07-0.1,0.11-0.13l0.47-0.27c0.04-0.02,0.08-0.02,0.11,0c0.03,0.02,0.05,0.06,0.05,0.12
				l0,4.96c0,0.06-0.02,0.11-0.05,0.17c-0.03,0.06-0.07,0.1-0.11,0.13L125.03,339.58z"/>
			<path class="st16" d="M129.24,331.78c0.04-0.02,0.08-0.02,0.11,0c0.03,0.02,0.05,0.06,0.05,0.12l0,0.55
				c0,0.06-0.01,0.11-0.05,0.17c-0.03,0.06-0.07,0.1-0.11,0.12l-1.04,0.6l0,4.21c0,0.06-0.02,0.11-0.05,0.17
				c-0.03,0.06-0.07,0.1-0.11,0.12l-0.47,0.27c-0.04,0.02-0.08,0.02-0.11,0c-0.03-0.02-0.05-0.07-0.05-0.12l0-4.21l-1.04,0.6
				c-0.04,0.02-0.08,0.03-0.11,0c-0.03-0.02-0.05-0.06-0.05-0.12l0-0.55c0-0.06,0.02-0.11,0.05-0.17c0.03-0.06,0.07-0.1,0.11-0.13
				L129.24,331.78z"/>
			<path class="st16" d="M133.61,332.92c0.01-0.07,0.03-0.13,0.06-0.18c0.03-0.05,0.07-0.09,0.11-0.11l0.47-0.27
				c0.04-0.02,0.08-0.03,0.11-0.01c0.03,0.02,0.05,0.06,0.04,0.12c-0.01,0.22-0.05,0.45-0.12,0.7c-0.07,0.25-0.17,0.5-0.31,0.75
				c-0.14,0.25-0.31,0.49-0.52,0.72c-0.21,0.23-0.47,0.43-0.77,0.6c-0.26,0.15-0.5,0.24-0.7,0.25c-0.2,0.01-0.38-0.03-0.52-0.14
				c-0.14-0.1-0.25-0.26-0.33-0.48c-0.08-0.21-0.13-0.47-0.14-0.77c-0.01-0.19-0.01-0.4-0.01-0.64c0-0.24,0-0.45,0.01-0.65
				c0.02-0.32,0.06-0.63,0.14-0.93c0.08-0.31,0.19-0.59,0.33-0.86c0.14-0.27,0.31-0.51,0.52-0.74c0.2-0.22,0.44-0.41,0.7-0.56
				c0.3-0.17,0.56-0.27,0.77-0.28c0.21-0.01,0.39,0.02,0.52,0.11c0.14,0.09,0.24,0.22,0.31,0.39c0.07,0.17,0.11,0.36,0.12,0.56
				c0,0.06-0.01,0.12-0.04,0.17c-0.03,0.06-0.07,0.1-0.11,0.12l-0.47,0.27c-0.04,0.02-0.08,0.03-0.11,0.01
				c-0.03-0.01-0.06-0.05-0.06-0.11c-0.01-0.09-0.04-0.18-0.08-0.25c-0.04-0.07-0.1-0.13-0.17-0.16c-0.07-0.03-0.17-0.04-0.28-0.03
				c-0.11,0.02-0.24,0.07-0.39,0.15c-0.15,0.09-0.28,0.19-0.39,0.32c-0.11,0.13-0.2,0.26-0.28,0.41c-0.07,0.15-0.13,0.3-0.17,0.47
				c-0.04,0.17-0.06,0.33-0.07,0.49c-0.01,0.2-0.01,0.42-0.01,0.65c0,0.24,0,0.45,0.01,0.64c0.01,0.16,0.03,0.3,0.07,0.42
				c0.04,0.12,0.1,0.21,0.17,0.26c0.07,0.06,0.17,0.09,0.28,0.08c0.11,0,0.24-0.05,0.39-0.13c0.15-0.09,0.28-0.19,0.39-0.3
				c0.11-0.11,0.2-0.23,0.28-0.35c0.08-0.12,0.13-0.24,0.18-0.36C133.58,333.15,133.6,333.03,133.61,332.92z"/>
			<path class="st16" d="M136.93,327.34c0.06-0.04,0.11-0.04,0.14-0.01c0.03,0.03,0.06,0.08,0.08,0.15l1.41,4.04
				c0,0.01,0.01,0.03,0.01,0.05c0,0.06-0.02,0.11-0.05,0.17c-0.03,0.06-0.07,0.1-0.11,0.12L138,332.1
				c-0.08,0.04-0.13,0.05-0.16,0.03c-0.03-0.03-0.05-0.06-0.06-0.09l-0.25-0.71l-1.82,1.05l-0.25,0.99
				c-0.01,0.05-0.03,0.1-0.06,0.16c-0.03,0.06-0.08,0.11-0.16,0.16l-0.41,0.24c-0.04,0.03-0.08,0.03-0.11,0
				c-0.03-0.02-0.05-0.06-0.05-0.12c0-0.02,0-0.04,0.01-0.06l1.41-5.67c0.02-0.1,0.05-0.18,0.08-0.24c0.03-0.06,0.08-0.11,0.14-0.15
				L136.93,327.34z M137.25,330.53l-0.63-1.82l-0.63,2.55L137.25,330.53z"/>
			<path class="st16" d="M140.73,325.15c0.48-0.28,0.84-0.34,1.09-0.19c0.25,0.15,0.38,0.49,0.37,1.02c0,0.37-0.06,0.73-0.19,1.07
				c-0.13,0.34-0.32,0.64-0.57,0.91l0.79,1.44c0.01,0.02,0.02,0.05,0.02,0.07c0,0.05-0.01,0.09-0.04,0.14
				c-0.02,0.05-0.05,0.08-0.09,0.1l-0.49,0.28c-0.08,0.04-0.13,0.05-0.17,0.03c-0.04-0.03-0.06-0.06-0.08-0.09l-0.75-1.35
				l-0.77,0.44l0,1.79c0,0.06-0.02,0.11-0.05,0.17c-0.03,0.06-0.07,0.1-0.11,0.12l-0.47,0.27c-0.04,0.02-0.08,0.03-0.11,0
				c-0.03-0.02-0.05-0.06-0.05-0.12l0-4.96c0-0.06,0.02-0.11,0.05-0.17c0.03-0.06,0.07-0.1,0.11-0.12L140.73,325.15z M139.87,328.06
				l0.84-0.48c0.22-0.13,0.39-0.28,0.52-0.46c0.13-0.18,0.2-0.41,0.2-0.7c0-0.29-0.06-0.44-0.2-0.46c-0.13-0.02-0.31,0.03-0.52,0.16
				l-0.83,0.48L139.87,328.06z"/>
			<path class="st16" d="M144.6,322.93c0.28-0.16,0.53-0.26,0.74-0.28c0.21-0.02,0.38,0.02,0.52,0.12c0.14,0.1,0.25,0.26,0.32,0.48
				c0.07,0.22,0.12,0.48,0.13,0.8c0.02,0.37,0.02,0.75,0,1.14c-0.01,0.33-0.06,0.65-0.13,0.95c-0.07,0.3-0.18,0.59-0.32,0.85
				c-0.14,0.26-0.31,0.51-0.52,0.72c-0.2,0.22-0.45,0.41-0.72,0.57l-1.45,0.84c-0.04,0.02-0.08,0.03-0.11,0
				c-0.03-0.02-0.05-0.06-0.05-0.12l0-4.96c0-0.06,0.02-0.11,0.05-0.17c0.03-0.06,0.07-0.1,0.11-0.13L144.6,322.93z M145.55,324.5
				c-0.01-0.16-0.03-0.3-0.07-0.42c-0.04-0.12-0.1-0.21-0.18-0.26c-0.08-0.06-0.18-0.09-0.3-0.07c-0.12,0.01-0.26,0.06-0.43,0.16
				l-0.77,0.45l0,3.46l0.8-0.46c0.16-0.09,0.29-0.2,0.41-0.32c0.12-0.13,0.21-0.26,0.29-0.41c0.08-0.15,0.14-0.3,0.18-0.47
				c0.04-0.17,0.06-0.33,0.07-0.5C145.56,325.25,145.56,324.87,145.55,324.5z"/>
		</g>
	</g>
</g>
<g id="Files_1_">
	<g id="Files">
		<g id="XMLID_1137_">
			<path id="XMLID_1140_" class="st1" d="M363.64,93.99c0-0.31-0.11-0.53-0.28-0.64l0,0l-0.01-0.01c-0.01,0-0.01-0.01-0.02-0.01
				l-1.89-1.09c0,0,0,0,0,0l0,0v0c-0.18-0.1-0.44-0.09-0.71,0.07l-29.05,16.76l-0.78-2.61c-0.08-0.26-0.23-0.45-0.42-0.56l0.01,0
				l-1.91-1.1l0,0.01c-0.26-0.16-0.6-0.16-0.93,0.02l-12.48,7.21c-0.56,0.32-1.01,1.11-1.01,1.76l0,41.63
				c0,0.31,0.11,0.53,0.28,0.64l0,0l0.02,0.01c0,0,0.01,0,0.01,0l1.89,1.09c0.01,0,0.01,0.01,0.02,0.01l0.02,0.01v0
				c0.18,0.09,0.42,0.07,0.69-0.08l45.57-26.31c0.56-0.32,1.01-1.11,1.01-1.76L363.64,93.99z"/>
			<path id="XMLID_1120_" class="st17" d="M363.64,93.99c0-0.31-0.11-0.53-0.28-0.64l0,0l-0.01-0.01c-0.01,0-0.01-0.01-0.02-0.01
				l-1.89-1.09c0,0,0,0,0,0l0,0v0c-0.18-0.1-0.44-0.09-0.71,0.07l-29.05,16.76l-0.78-2.61c-0.08-0.26-0.23-0.45-0.42-0.56l0.01,0
				l-1.91-1.1l0,0.01c-0.26-0.16-0.6-0.16-0.93,0.02l-12.48,7.21c-0.56,0.32-1.01,1.11-1.01,1.76l0,41.63
				c0,0.31,0.11,0.53,0.28,0.64l0,0l0.02,0.01c0,0,0.01,0,0.01,0l1.89,1.09c0.01,0,0.01,0.01,0.02,0.01l0.02,0.01v0
				c0.18,0.09,0.42,0.07,0.69-0.08l45.57-26.31c0.56-0.32,1.01-1.11,1.01-1.76L363.64,93.99z"/>
			<path id="XMLID_1139_" class="st1" d="M330.45,105.87c-0.26-0.15-0.59-0.14-0.91,0.04l-12.48,7.2c-0.28,0.16-0.53,0.44-0.72,0.76
				l-1.9-1.1c0.18-0.32,0.44-0.6,0.72-0.76l12.48-7.2c0.33-0.19,0.67-0.18,0.93-0.02v0L330.45,105.87z"/>
			<path id="XMLID_3044_" class="st1" d="M363.29,93.3c-0.18-0.07-0.41-0.05-0.67,0.1l-29.37,16.94c-0.56,0.32-1.17,0.08-1.35-0.54
				l-0.23-0.75l29.05-16.76c0.16-0.09,0.31-0.14,0.45-0.14c0.1,0,0.19,0.02,0.26,0.07h0L363.29,93.3z"/>
			<path id="XMLID_1138_" class="st14" d="M316.18,157.01c0.03,0.04,0.06,0.07,0.1,0.11l-1.84-1.06c0,0,0,0-0.01,0l-0.02-0.01
				c-0.07-0.05-0.13-0.11-0.17-0.2c-0.02-0.04-0.04-0.07-0.05-0.12c-0.03-0.09-0.05-0.2-0.05-0.33l0-41.63c0-0.04,0-0.08,0-0.12
				c0.01-0.08,0.02-0.17,0.04-0.25c0.01-0.04,0.02-0.08,0.03-0.13c0.04-0.13,0.09-0.25,0.15-0.38c0.02-0.04,0.04-0.08,0.07-0.12
				l1.9,1.1c-0.18,0.31-0.3,0.68-0.3,1v41.63c0,0.06,0,0.12,0.01,0.18c0,0.03,0.01,0.07,0.02,0.1c0,0.02,0.01,0.03,0.01,0.05
				c0.01,0.02,0.02,0.05,0.03,0.07C316.13,156.94,316.15,156.97,316.18,157.01z"/>
		</g>
		<g id="XMLID_1142_">
			<path id="XMLID_1151_" class="st1" d="M384.03,105.76c0-0.31-0.11-0.53-0.28-0.64l0,0l-0.01-0.01c-0.01,0-0.01-0.01-0.02-0.01
				l-1.89-1.09c0,0,0,0,0,0l0,0v0c-0.18-0.1-0.44-0.09-0.71,0.07l-29.05,16.76l-0.78-2.61c-0.08-0.26-0.23-0.45-0.42-0.56l0.01,0
				l-1.91-1.1l0,0.01c-0.26-0.16-0.6-0.16-0.93,0.02l-12.48,7.21c-0.56,0.32-1.01,1.11-1.01,1.76l0,41.63
				c0,0.31,0.11,0.53,0.28,0.64l0,0l0.02,0.01c0,0,0.01,0,0.01,0l1.89,1.09c0.01,0,0.01,0.01,0.02,0.01l0.02,0.01v0
				c0.18,0.09,0.42,0.07,0.69-0.08l45.57-26.31c0.56-0.32,1.01-1.11,1.01-1.76L384.03,105.76z"/>
			<path id="XMLID_1147_" class="st8" d="M384.03,105.76c0-0.31-0.11-0.53-0.28-0.64l0,0l-0.01-0.01c-0.01,0-0.01-0.01-0.02-0.01
				l-1.89-1.09c0,0,0,0,0,0l0,0v0c-0.18-0.1-0.44-0.09-0.71,0.07l-29.05,16.76l-0.78-2.61c-0.08-0.26-0.23-0.45-0.42-0.56l0.01,0
				l-1.91-1.1l0,0.01c-0.26-0.16-0.6-0.16-0.93,0.02l-12.48,7.21c-0.56,0.32-1.01,1.11-1.01,1.76l0,41.63
				c0,0.31,0.11,0.53,0.28,0.64l0,0l0.02,0.01c0,0,0.01,0,0.01,0l1.89,1.09c0.01,0,0.01,0.01,0.02,0.01l0.02,0.01v0
				c0.18,0.09,0.42,0.07,0.69-0.08l45.57-26.31c0.56-0.32,1.01-1.11,1.01-1.76L384.03,105.76z"/>
			<path id="XMLID_1146_" class="st1" d="M350.84,117.64c-0.26-0.15-0.59-0.14-0.91,0.04l-12.48,7.2c-0.28,0.16-0.53,0.44-0.72,0.76
				l-1.9-1.1c0.18-0.32,0.44-0.6,0.72-0.76l12.48-7.2c0.33-0.19,0.67-0.18,0.93-0.02v0L350.84,117.64z"/>
			<path id="XMLID_1144_" class="st1" d="M383.68,105.08c-0.18-0.07-0.41-0.05-0.67,0.1l-29.37,16.94
				c-0.56,0.32-1.17,0.08-1.35-0.54l-0.23-0.75l29.05-16.76c0.16-0.09,0.31-0.14,0.45-0.14c0.1,0,0.19,0.02,0.26,0.07h0
				L383.68,105.08z"/>
			<path id="XMLID_1143_" class="st18" d="M336.58,168.78c0.03,0.04,0.06,0.07,0.1,0.11l-1.84-1.06c0,0,0,0-0.01,0l-0.02-0.01
				c-0.07-0.05-0.13-0.11-0.17-0.2c-0.02-0.04-0.04-0.07-0.05-0.12c-0.03-0.09-0.05-0.2-0.05-0.33l0-41.63c0-0.04,0-0.08,0-0.12
				c0.01-0.08,0.02-0.17,0.04-0.25c0.01-0.04,0.02-0.08,0.03-0.13c0.04-0.13,0.09-0.25,0.15-0.38c0.02-0.04,0.04-0.08,0.07-0.12
				l1.9,1.1c-0.18,0.31-0.3,0.68-0.3,1v41.63c0,0.06,0,0.12,0.01,0.18c0,0.03,0.01,0.07,0.02,0.1c0,0.02,0.01,0.03,0.01,0.05
				c0.01,0.02,0.02,0.05,0.03,0.07C336.52,168.71,336.55,168.75,336.58,168.78z"/>
		</g>
		<g id="XMLID_1169_">
			<path id="XMLID_1174_" class="st1" d="M404.43,117.53c0-0.31-0.11-0.53-0.28-0.64l0,0l-0.01-0.01c-0.01,0-0.01-0.01-0.02-0.01
				l-1.89-1.09c0,0,0,0,0,0l0,0v0c-0.18-0.1-0.44-0.09-0.71,0.07l-29.05,16.76l-0.78-2.61c-0.08-0.26-0.23-0.45-0.42-0.56l0.01,0
				l-1.91-1.1l0,0.01c-0.26-0.16-0.6-0.16-0.93,0.02l-12.48,7.21c-0.56,0.32-1.01,1.11-1.01,1.76l0,41.63
				c0,0.31,0.11,0.53,0.28,0.64l0,0l0.02,0.01c0,0,0.01,0,0.01,0l1.89,1.09c0.01,0,0.01,0.01,0.02,0.01l0.02,0.01v0
				c0.18,0.09,0.42,0.07,0.69-0.08l45.57-26.31c0.56-0.32,1.01-1.11,1.01-1.76L404.43,117.53z"/>
			<g class="st19">
				<path id="XMLID_1172_" class="st7" d="M371.23,129.41c-0.26-0.15-0.59-0.14-0.91,0.04l-12.48,7.2
					c-0.28,0.16-0.53,0.44-0.72,0.76l-1.9-1.1c0.18-0.32,0.44-0.6,0.72-0.76l12.48-7.2c0.33-0.19,0.67-0.18,0.93-0.02v0
					L371.23,129.41z"/>
				<path id="XMLID_1171_" class="st7" d="M404.08,116.85c-0.18-0.08-0.41-0.05-0.67,0.1l-29.37,16.94
					c-0.56,0.32-1.17,0.08-1.35-0.54l-0.23-0.75l29.05-16.76c0.16-0.09,0.31-0.14,0.45-0.14c0.1,0,0.19,0.02,0.26,0.07h0
					L404.08,116.85z"/>
			</g>
			<path id="XMLID_1170_" class="st13" d="M356.97,180.56c0.03,0.04,0.06,0.07,0.1,0.11l-1.84-1.06c0,0,0,0-0.01,0l-0.02-0.01
				c-0.07-0.05-0.13-0.11-0.17-0.2c-0.02-0.04-0.04-0.08-0.05-0.12c-0.03-0.09-0.05-0.2-0.05-0.33l0-41.63c0-0.04,0-0.08,0-0.12
				c0.01-0.08,0.02-0.17,0.04-0.25c0.01-0.04,0.02-0.08,0.03-0.13c0.04-0.13,0.09-0.25,0.15-0.37c0.02-0.04,0.04-0.08,0.07-0.12
				l1.9,1.1c-0.18,0.31-0.3,0.68-0.3,1v41.63c0,0.06,0,0.12,0.01,0.18c0,0.03,0.01,0.07,0.02,0.1c0,0.02,0.01,0.03,0.01,0.05
				c0.01,0.02,0.02,0.05,0.03,0.07C356.92,180.48,356.94,180.52,356.97,180.56z"/>
		</g>
	</g>
</g>
<g id="Character_1_">
	<g id="Character_16_">
		<g id="Laptop">
			<path id="XMLID_501_" class="st13" d="M440.28,405.7l-65.49-37.8c-1.16-0.67-2.6-0.67-3.76,0l-113.61,65.6
				c-0.56,0.32-0.56,1.13,0,1.45l66.1,38.17L440.28,405.7z"/>
			<g id="XMLID_5410_">
				<g id="XMLID_500_">
					<path id="XMLID_5540_" class="st9" d="M435.39,397.74v1.47c0,2.16-1.15,4.15-3.02,5.24l-105.82,61.09
						c-0.93,0.54-1.98,0.8-3.01,0.8c-1.05,0-2.1-0.26-3.04-0.81l-57.68-33.2c-1.85-1.07-3.02-3.08-3.02-5.24v-2.04h0.01v0.02
						c0,0.26,0.12,0.5,0.38,0.66l63.35,36.58L435.39,397.74z"/>
				</g>
				<g id="XMLID_495_">
					<path id="XMLID_499_" class="st4" d="M435.4,397.73l-62.75-36.22c-1.12-0.64-2.49-0.64-3.61,0l-108.86,62.86
						c-0.53,0.31-0.53,1.08,0,1.39l63.34,36.57L435.4,397.73z"/>
				</g>
				<g id="XMLID_491_">
					<polygon id="XMLID_493_" class="st9" points="322.95,457 289.1,437.48 388.06,380.35 422.08,399.76 					"/>
				</g>
				<g id="XMLID_486_">
					<polygon id="XMLID_490_" class="st0" points="422.08,399.76 420.79,400.51 388.06,381.83 290.4,438.23 289.11,437.48 
						388.06,380.35 					"/>
				</g>
				<g id="XMLID_482_">
					<polygon id="XMLID_483_" class="st0" points="306.31,402.7 306.94,403.06 323.53,412.64 353.02,395.61 353.64,395.26 
						336.43,385.32 					"/>
				</g>
				<g id="XMLID_472_">
					<polygon id="XMLID_475_" class="st9" points="306.94,403.06 323.53,412.64 353.02,395.61 336.43,386.03 					"/>
				</g>
				<g id="XMLID_450_">
					<path id="XMLID_462_" class="st0" d="M323.53,462.33v4.02c1.04,0,2.09-0.26,3.02-0.8l105.83-61.1
						c1.87-1.08,3.03-3.08,3.03-5.24v-1.47L323.53,462.33z"/>
				</g>
			</g>
		</g>
		<path id="Light_1_" class="st20" d="M449.76,321.85L323.53,462.33l-118.21-68.38c-0.03-0.02-0.06-0.03-0.08-0.04l-1.15-0.67
			c-9.52-5.98-11.66-20.03-14.44-42.98c-2.68-22.1-3.05-47.23-2.68-64.09c0.36-16.84,5.19-30.69,18.39-36.76v0.01
			c6.96-6.43,15.9-10.1,24.03-13.32c3.21-7.32,3.1-15.65,2.38-26.36c-0.85-12.3,2.05-28.79,19.56-37.73s36.72-0.39,46.73,9.08
			L448.3,320.73L449.76,321.85z"/>
		<g id="Character_3_">
			<g id="Arm_4_">
				<path class="st9" d="M288.03,223.32c10.88,0.18,16.28,9.18,18.55,25.48c3.12,22.43,6.48,57.01,6.48,57.01
					s20.17,17.35,24.16,21.36c3.99,4.01,5.67,6.27,4.3,8.92l-12.43,16.78c-3.42,1.79-7.48-0.8-15.12-5.57
					c-7.48-4.67-18.86-12.99-23.29-16.41c-5.23-4.03-8.25-6.19-10.68-18.97c-2.44-12.78-13.52-67.3-13.52-67.3L288.03,223.32z"/>
				<path class="st21" d="M354.6,346.85c3.14,2.47,7.19,6.61,9.11,8.23c1.91,1.62,7.51,10.31,10.46,14.88
					c2.95,4.57,5.01,10.16,3.68,14.14c-1.33,3.98-6.33,8.08-7.36,10.52c-1.03,2.44-1.85,5.39-4.09,2.73
					c-2.24-2.65-3.42-7.51-5.63-11.19c-2.21-3.68-4.84-8.92-7.95-10.75c-2.97-1.75-3.65,0.08-3.6,1.21
					c0.06,1.32,1.97,4.75,1.97,7.88c0,3.13-1.78,6.23-3.17,6.08c-1.39-0.15-1.88-2.52-3.56-6.31c-1.82-4.1-2.82-4.01-3.27-8.73
					c-0.44-4.71,0.12-5.95-0.37-10.33c-0.18-1.56-0.5-2.81-0.82-3.75c-0.42-1.22-1.22-2.28-2.28-3.02l-1.54-1.07
					c1.61-7.57,6.21-12.37,14.12-14.14C350.29,343.24,351.45,344.38,354.6,346.85z"/>
				<g>
					<path class="st1" d="M357.29,380.35L357.29,380.35c-0.01-0.02-0.02-0.04-0.04-0.06C357.26,380.31,357.27,380.33,357.29,380.35z
						"/>
				</g>
				<path class="st0" d="M340.88,335.57c0,0-4.43-0.89-9.86,6.04c-5.43,6.93-3.16,10.46-3.16,10.46l10.15,6.61
					c2.47-7.1,8.9-13.6,14.44-13.68L340.88,335.57z"/>
				<path class="st1" d="M363.71,355.09c-1.91-1.62-5.96-5.76-9.11-8.23c-0.94-0.74-1.68-1.35-2.29-1.85c0.05,0,0.09-0.01,0.14-0.01
					l-10.92-8.9c1.37-2.65-0.31-4.91-4.3-8.92c-3.99-4.01-24.16-21.36-24.16-21.36s-3.36-34.57-6.48-57.01
					c-2.23-16.05-7.51-25.01-18.06-25.45l0,0c7.36,0.76,13.72,9.61,15.72,21.27c2,11.65,5.87,59.71,5.87,59.71s-3.65,1.02-6.72,4.85
					c0,0,5.84-3.52,7.75-2.42c1.91,1.1,16.86,14.76,20.98,17.79c4.13,3.04,10.04,7.8,7.8,11.58c0,0-0.74,1.2,4.29,4.85
					c5.03,3.65,13.55,10.93,19.2,15.74c3.52,3,5.56,5.44,6.59,6.86C367.49,359.8,364.89,356.09,363.71,355.09z"/>
			</g>
			<path id="Chest" class="st4" d="M229.39,236.11c-9.88,3.91-20.97,8.49-28.22,17.87c-7.25,9.38-8.4,78.03,0.13,103.2
				c8.53,25.17,30.1,39.22,30.1,39.22l71.34-41.19c0,0-10.01-19.75-9.05-35.36c0.96-15.6,5.93-94.5-8.15-96
				C265.28,223.24,229.39,236.11,229.39,236.11z"/>
			<path class="st1" d="M293.69,319.85c0.54-8.83,2.37-37.96,1.3-61.84c0,0-0.71,25.9-1.71,38.42c-1,12.52-3.7,25.53,0.86,42.34
				c2.04,7.5,4.33,13.25,6.73,17.52l1.88-1.08C302.74,355.21,292.73,335.46,293.69,319.85z"/>
			<g id="Skull_1_">
				<path class="st15" d="M257.44,340.25c0.3-0.28,0.59-0.39,0.86-0.37c0.78,0.07,1.65-0.33,2.46-1.19l16.21-17.02
					c0.58-0.6,0.98-1.59,1.11-2.57c0-0.01,0-0.01,0-0.02c0.17-1.28,0.94-2.44,1.69-2.58c0.45-0.09,0.78,0.35,0.86,1.03
					c0.07,0.54,0.33,0.86,0.69,0.8c0.41-0.07,0.73,0.2,0.84,0.74c0.2,1.04-0.25,2.49-1,3.22c-0.26,0.25-0.53,0.38-0.77,0.39
					c-1.02,0.05-2.11,0.56-3.14,1.64l-15.48,16.26c-0.66,0.7-1.14,1.83-1.29,2.96c0,0.01,0,0.01,0,0.02
					c-0.18,1.28-0.96,2.43-1.71,2.55c-0.45,0.07-0.77-0.37-0.85-1.05c-0.06-0.54-0.32-0.87-0.68-0.82
					c-0.41,0.06-0.72-0.22-0.83-0.77C256.22,342.41,256.68,340.96,257.44,340.25z"/>
				<path class="st15" d="M277.15,307.31c0-1.56,0.91-2.73,0.91-7.31s-2.9-7.71-8.77-4.32c-5.86,3.39-8.77,9.86-8.77,14.44
					s0.92,4.7,0.92,6.26s-1.67,3.44-0.92,5.21c0.75,1.77,2.15-0.08,2.95,0.19c0.81,0.27,1.03,1.1,1.03,3.11c0,0,1.29,1.36,4.78-0.65
					c3.5-2.02,4.79-4.88,4.79-4.88c0-2.01,0.22-3.1,1.02-4.31c0.81-1.2,2.2-0.95,2.95-3.58
					C278.81,308.83,277.15,308.87,277.15,307.31z M264.06,317.81c-1.35-0.1-1.47-2.39-1.1-3.66c0.37-1.28,1.44-2.43,2.59-2.9
					c1.81-0.74,2.77,0.87,2.13,2.91C267.04,316.21,265,317.88,264.06,317.81z M270.72,318.65c-0.38,0.54-1.15,0.62-1.43-0.42
					c-0.28,1.36-1.03,2.16-1.42,2.07c-0.39-0.09-0.3-0.76,0.04-1.95c0.34-1.2,1.37-3.55,1.37-3.55s1.04,1.17,1.38,1.96
					C271.01,317.54,271.1,318.11,270.72,318.65z M274.53,311.77c-0.94,1.16-2.99,1.84-3.63,0.54c-0.64-1.3,0.32-4.02,2.13-5.36
					c1.16-0.87,2.22-0.95,2.58-0.09C275.98,307.7,275.88,310.1,274.53,311.77z"/>
				<path class="st15" d="M281.14,326.57c-0.3,0.06-0.59,0.29-0.86,0.62c-0.78,0.97-1.65,1.57-2.46,1.66l-16.21,1.7
					c-0.58,0.06-0.98-0.46-1.11-1.29c0,0,0-0.01,0-0.01c-0.17-1.08-0.94-1.36-1.69-0.63c-0.45,0.44-0.78,1.25-0.86,2.02
					c-0.07,0.61-0.33,1.23-0.69,1.6c-0.41,0.41-0.73,1.04-0.84,1.71c-0.2,1.27,0.25,2.2,1,2.06c0.26-0.05,0.53-0.23,0.77-0.5
					c1.02-1.13,2.11-1.88,3.14-1.99l15.48-1.62c0.66-0.07,1.14,0.52,1.29,1.47c0,0,0,0.01,0,0.01c0.18,1.07,0.96,1.32,1.71,0.58
					c0.45-0.45,0.77-1.26,0.85-2.03c0.06-0.61,0.32-1.24,0.68-1.61c0.41-0.42,0.72-1.06,0.83-1.72
					C282.37,327.31,281.9,326.4,281.14,326.57z"/>
			</g>
			<g id="Head_2_">
				<path class="st9" d="M238.97,264.67c13.85,12.94,31.54,14.78,31.54,14.78s-5.87-1.93-17.24-12.74
					c-8.01-7.6-11.82-24.63-13.38-34.06c-0.47,0.15-0.93,0.29-1.38,0.43c-0.16,0.05-0.31,0.1-0.46,0.15
					c-0.35,0.11-0.69,0.22-1.02,0.32c-0.13,0.04-0.26,0.08-0.38,0.12c-0.42,0.13-0.82,0.26-1.21,0.39
					c-0.13,0.04-0.25,0.08-0.38,0.12c-0.29,0.09-0.57,0.19-0.85,0.28c-0.11,0.04-0.23,0.07-0.34,0.11
					c-0.34,0.11-0.65,0.22-0.96,0.32c-0.11,0.04-0.22,0.07-0.32,0.11c-0.21,0.07-0.42,0.14-0.62,0.21
					c-0.09,0.03-0.18,0.06-0.27,0.09c-0.25,0.09-0.49,0.17-0.7,0.24c-0.07,0.02-0.13,0.04-0.19,0.07c-0.16,0.05-0.31,0.11-0.44,0.15
					c-0.06,0.02-0.12,0.04-0.18,0.06c-0.15,0.05-0.29,0.1-0.4,0.14c-0.03,0.01-0.05,0.02-0.08,0.03c-0.08,0.03-0.16,0.06-0.21,0.08
					c-0.02,0.01-0.04,0.01-0.05,0.02c-0.04,0.01-0.08,0.03-0.08,0.03c-1.08,0.43-2.18,0.87-3.28,1.31
					C226.51,242.66,228.62,254.99,238.97,264.67z"/>
				<path class="st9" d="M270.52,279.45c4.6-3.99,5.67-16.71,11.86-22.33c6.19-5.61,25.71-20.51,30.55-30.98
					c4.84-10.48-9.22-12.79-24.98-7.08c-15.76,5.72-28.89,17.15-30.44,30.59C255.96,263.1,259.89,275.4,270.52,279.45z"/>
				<path class="st21" d="M301.24,218.05c-0.7,9.36-1.93,19.12-5.54,27.87c-2.73,6.62-5.73,12.15-12.13,11.37
					c-5.92-0.72-10.69-3.05-10.69-3.05l-2.28,9.59c0,0,0.91,6.95-0.08,15.62c-5.27-1.97-11.35-6.59-16.38-11.68
					c-0.59-0.6-1.18-1.2-1.74-1.81c-3.65-3.95-6.56-8.03-7.9-11.27c0,0,0.4-5.39,0.75-10.31c0.27-3.74,0.92-7.36,0.13-11.04
					c-0.87-4.1-2.47-7.98-3.37-12.07c-0.19-0.89-0.35-1.79-0.48-2.69c-1.38-9.99,1.6-20.6,8.41-28.03
					c7.43-8.1,19.31-12.02,29.99-9.41c5.86,1.43,11.17,4.87,15.04,9.47c3.07,3.64,4.5,7.55,5.96,11.98
					C302.48,207.43,301.62,213.01,301.24,218.05z"/>
				<path class="st1" d="M298.27,233.94c-1.69,10.69-6.44,19.25-10.15,21.66c-3.62,2.36-11.42,0.11-11.77,0.01
					c1.9,0.64,4.43,1.34,7.22,1.68c6.4,0.78,9.4-4.75,12.13-11.37c3.6-8.74,4.84-18.51,5.54-27.86c0.28-3.77,0.83-7.85,0.43-11.68
					l-3.4-1.42C299.8,216.63,299.96,223.25,298.27,233.94z"/>
				<path class="st22" d="M270.6,263.83c0,0,0.91,6.95-0.08,15.62c-5.27-1.97-11.35-6.59-16.38-11.68c-0.59-0.6-1.18-1.2-1.74-1.81
					c-3.65-3.95-6.56-8.03-7.9-11.27c0,0,0.4-5.39,0.75-10.31c0.27-3.74,0.92-7.36,0.13-11.04c-0.06-0.26-0.12-0.51-0.18-0.77
					l1.51-3.61c1.43,4.1,4.74,9.86,9.99,15.53c3.94,4.26,8.73,6.28,16.18,9.75L270.6,263.83z"/>
				<g id="XMLID_530_">
					<polygon id="XMLID_532_" class="st22" points="291.89,226.57 291.16,227.77 289.85,244.63 298.99,243.15 					"/>
				</g>
				<g>
					<path class="st0" d="M293,229.18c-0.66-0.73-1.78-0.23-1.96,0.42c-0.6,2.11-1.01,4.85-2.87,6.49
						c-2.55,2.25-8.71,2.62-11.52,1.25c-2.64-1.29-3.04-7.39-4.56-8.34c-0.64-0.4-1.21-0.27-1.45-1.74
						c-0.21-1.29,0.43-1.53,1.37-1.71c3.34-0.61,14.56-2.53,16.5-2.2c1.94,0.33,1.42,3.08,3.25,2.98c1.61-0.09,1.3-3.03,3.18-3.59
						c1.88-0.56,8.3-1.15,10.22-1.11c0.87,0.02,1.52,0.09,1.41,1.36c-0.14,1.71-0.88,1.71-1.35,1.82c-0.72,0.17-1.26,5.89-2.27,7.51
						c-1.56,2.49-7.71,2.11-7.71,2.11L293,229.18z"/>
					<path class="st1" d="M282.27,236.59c2.47-0.25,4.4-0.93,5.26-2.08c1.29-1.72,1.89-5.73,1.71-7.2
						c-0.18-1.48-0.57-2.83-4.74-2.44c-4.17,0.39-7.13,0.55-8.71,1.7c-1.58,1.15-1.07,3.47-0.56,5.18c0.51,1.71,1.28,3.36,2.17,4.09
						C278.17,236.47,280.15,236.8,282.27,236.59z"/>
					<path class="st23" d="M282.27,236.59c2.47-0.25,4.4-0.93,5.26-2.08c1.29-1.72,1.89-5.73,1.71-7.2
						c-0.18-1.48-0.57-2.83-4.74-2.44c-4.17,0.39-7.13,0.55-8.71,1.7c-1.58,1.15-1.07,3.47-0.56,5.18c0.51,1.71,1.28,3.36,2.17,4.09
						C278.17,236.47,280.15,236.8,282.27,236.59z"/>
					<path class="st1" d="M295.88,224.12c-1.46,0.54-2.07,2.64-1.65,4.71c0.41,2.07,1.15,3.78,1.67,4.08
						c0.92,0.54,4.29,0.04,5.36-0.79c1.07-0.83,2-5.46,2.11-6.66c0.14-1.47-0.31-2.17-2.02-2.08
						C299.12,223.5,296.69,223.82,295.88,224.12z"/>
					<path class="st23" d="M295.88,224.12c-1.46,0.54-2.07,2.64-1.65,4.71c0.41,2.07,1.15,3.78,1.67,4.08
						c0.92,0.54,4.29,0.04,5.36-0.79c1.07-0.83,2-5.46,2.11-6.66c0.14-1.47-0.31-2.17-2.02-2.08
						C299.12,223.5,296.69,223.82,295.88,224.12z"/>
				</g>
				<path class="st4" d="M270.52,279.45c-8.03-3.09-14.46-21.67-7.67-35.79c6.79-14.12,28.06-22.88,40.75-23.23
					c12.69-0.36,9.86,4.38,9.33,5.72c0,0,4.33-3.86,2.22-15.11c-2.16-11.52-7.09-20.46-17.1-29.93
					c-10.01-9.47-29.21-18.02-46.73-9.08s-20.4,25.43-19.56,37.73c0.73,10.7,0.84,19.03-2.38,26.36c0,0-2,9.58,8.9,23.34
					C249.19,273.21,270.52,279.45,270.52,279.45z"/>
			</g>
			<g id="Arm_3_">
				<g>
					<path class="st21" d="M289.95,414.33c0,0,1.34,0.53,3.5,1.14c1.93,0.55,3.74,1.87,8.34,2.88c5.45,1.19,12.09-1.3,16.69-1.93
						c4.6-0.63,12.6,0.86,17.03,2.24c4.43,1.38,9.02-5.64,11.24-5.02c2.21,0.62,5.79-1.43,1.53-5c-4.26-3.58-10.41-8.51-15.33-9.7
						c-0.63-0.15-1.6-0.5-3.46-0.77c1.63-0.46,3.28-0.71,4.85-1.39c1.56-0.67,3.01-1.68,3.93-3.1c0.37-0.57,0.6-1.45,0.03-1.84
						c-0.2-0.14-0.46-0.21-0.7-0.19c-3.6,0.19-6.48-0.14-9.76-0.1c-1.43,0.01-3.05-0.04-4.39,0.44c-1.31,0.47-2.61,0.97-3.89,1.54
						c-5.79,2.55-11.07,4.86-19.67,3.59l-3.58-0.95c-1.1,0-3.39,2.56-5.01,7.11C288.75,410.44,289.95,414.33,289.95,414.33z"/>
					<path class="st22" d="M327.28,395.8c-3.14-0.06-6.45,1.6-6.45,1.6s3.85-0.24,8.65,0.78c1.63-0.46,3.28-0.71,4.85-1.39
						c1.37-0.59,2.67-1.45,3.59-2.62C335.47,396.13,330.41,395.86,327.28,395.8z"/>
				</g>
				<path class="st9" d="M205.36,249.42c6.1,0.68,16.01,15.98,18.14,32.71c2.23,17.54,5.74,77.77,5.74,77.77
					s25.36,12.41,35.61,17.17c10.25,4.76,18.81,8.8,19.17,13.19c-6.09,2.77-8.2,11.8-8.37,20.65c-3.86,5.43-50.53-9.32-68.21-16.02
					c-12.42-4.7-14.72-19.21-17.8-44.64c-2.68-22.1-3.04-47.24-2.68-64.09C187.34,269.33,192.16,255.48,205.36,249.42z"/>
				<path class="st0" d="M284.03,390.27l13.4,6.2c-4.67,1.31-7.73,10.95-6.64,18.26l-15.14-3.8c0,0-3.16-4.21,0.95-12.71
					C280.72,389.72,284.03,390.27,284.03,390.27z"/>
				<path class="st1" d="M315.73,395.15C315.73,395.15,315.73,395.15,315.73,395.15c-4.47,1.77-9.15,2.95-15.85,1.96l-2.45-0.65
					l-13.4-6.2c-0.37-4.39-8.92-8.43-19.17-13.19c-10.25-4.76-35.61-17.17-35.61-17.17s-3.51-60.23-5.74-77.77
					c-0.72-5.63-2.32-11.1-4.36-15.91l-3.03-6.13c4.05,8.67,6.09,30.17,8.55,61.97s2.08,38.27,2.08,38.27s-4.79,4.04-7.93,8.24
					c0,0,8.39-6.83,12.59-5.25c4.2,1.58,35.99,16.13,41.85,19.47c5.86,3.34,8.51,5.9,7.97,8.76c0,0,11.52,4.58,15.01,6.18
					C299.72,399.35,307.76,400.14,315.73,395.15z"/>
			</g>
		</g>
		<g>
			<g id="XMLID_369_">
				<path id="XMLID_448_" class="st9" d="M325.23,463.22c2,0.77,4.28,0.62,6.18-0.48l105.36-60.83c1.85-1.07,3.12-2.9,3.48-5.01
					l11.54-68.79c0.06-0.39,0.1-0.78,0.1-1.18c0-1.92-0.76-3.75-2.12-5.09l-109.49,63.22c-1.37,0.79-2.31,2.15-2.57,3.71
					L325.23,463.22z"/>
			</g>
			<g id="XMLID_5452_">
				<path id="XMLID_363_" class="st4" d="M323.53,462.33l0.72,0.41c0.32,0.18,0.65,0.34,0.98,0.48l12.47-74.44
					c0.27-1.56,1.21-2.91,2.57-3.71l109.49-63.22c-0.42-0.42-0.92-0.79-1.46-1.11l-109.71,63.34c-1.37,0.79-2.31,2.15-2.57,3.71
					L323.53,462.33z"/>
			</g>
			<path id="XMLID_5446_" class="st0" d="M338.72,386.47l-1.7-0.98c-0.5,0.67-0.86,1.44-1,2.29l-12.49,74.55l0.72,0.41
				c0.32,0.18,0.65,0.34,0.98,0.48l12.47-74.44C337.84,387.93,338.21,387.15,338.72,386.47z"/>
			<g id="XMLID_5411_">
				<path id="XMLID_5445_" class="st1" d="M384.57,399.72c0.77-4.61,5.53-10.72,10.62-13.66c5.09-2.94,8.6-1.59,7.82,3.02
					c-0.77,4.61-5.53,10.72-10.62,13.66C387.3,405.68,383.8,404.33,384.57,399.72z"/>
			</g>
		</g>
	</g>
</g>
<g id="Speech_Bubble">
	<g id="Virus_Box">
		<g id="Speech_Bubble_2_">
			<g>
				<path class="st1" d="M267.81,126.46l-11.02,6.36l3.88,11.21c0.13,0.39,0.38,0.66,0.68,0.82c0.78,0.41,4.15,2.4,4.43,2.56
					c0.78,0.46,1.93,0.13,2.19-0.92l4.32-17.44L267.81,126.46z"/>
				<path class="st13" d="M267.81,126.46l-11.02,6.36l3.88,11.21c0.13,0.39,0.38,0.66,0.68,0.82c0.78,0.41,4.15,2.4,4.43,2.56
					c0.78,0.46,1.93,0.13,2.19-0.92l4.32-17.44L267.81,126.46z"/>
				<path class="st1" d="M261.27,135.42l3.88,11.21c0.48,1.38,2.47,1.29,2.82-0.13l4.32-17.44L261.27,135.42z"/>
			</g>
			<g id="XMLID_1211_">
				<path id="XMLID_1121_" class="st1" d="M288.46,75.45c0-2-1.41-4.44-3.14-5.44l-0.52-0.3c-1.73-1-4.55-1-6.28,0l-39.23,22.69
					c-1.74,1-3.14,3.44-3.14,5.44V141c0,2,1.41,4.44,3.14,5.44l0.52,0.3c1.73,1,4.55,1,6.28,0l39.23-22.69
					c1.74-1,3.14-3.44,3.14-5.44L288.46,75.45z"/>
				<path id="XMLID_1215_" class="st13" d="M236.14,141c0,2,1.41,4.44,3.14,5.44l0.52,0.3c1.57,0.91,4.01,0.98,5.75,0.25
					c-1.48,0.56-2.6-0.27-2.6-2.07l0-43.16c0-1,0.35-2.11,0.92-3.1l-6.81-3.93c-0.57,0.98-0.92,2.09-0.92,3.1V141z"/>
				<path id="XMLID_1118_" class="st24" d="M288.35,74.55c-0.37-1.33-1.58-1.76-3.03-0.92l-39.23,22.69
					c-0.86,0.5-1.66,1.35-2.21,2.34l-6.8-3.93c0.57-1,1.35-1.85,2.21-2.35l39.22-22.69c1.74-1,4.56-1,6.29,0l0.53,0.31
					C286.8,70.86,288.05,72.77,288.35,74.55z"/>
			</g>
		</g>
		<path id="Virus" class="st9" d="M281.23,106.8l-1.01-7.51c-0.04-0.32-0.26-0.6-0.56-0.72c-0.11-0.04-0.22-0.06-0.34-0.06
			c-0.21,0-0.41,0.07-0.57,0.2l-2.53,2.04c-0.35-1.38-0.87-2.59-1.53-3.58c0-0.01,0.01-0.02,0.01-0.03c0,0,0,0,0-0.01
			c0,0,0-0.01,0.01-0.01l1.3-3.08l1.69-5.88c0.14-0.48-0.14-0.98-0.62-1.12c-0.08-0.02-0.16-0.03-0.25-0.03
			c-0.4,0-0.76,0.27-0.87,0.66l-1.63,5.72l-0.96,2.27c-0.27-0.24-0.55-0.45-0.85-0.64c-0.88-0.54-1.85-0.83-2.88-0.86l1.53-5.93
			c0.12-0.48-0.17-0.98-0.65-1.1c-0.07-0.02-0.15-0.03-0.23-0.03c-0.41,0-0.77,0.28-0.88,0.68l-1.7,6.6
			c-0.66,0.17-1.33,0.43-2.01,0.8c-0.48,0.26-0.95,0.56-1.41,0.89l-1.09-4.03c-0.11-0.39-0.47-0.67-0.87-0.67
			c-0.08,0-0.16,0.01-0.24,0.03c-0.48,0.13-0.77,0.63-0.64,1.11l1.31,4.83c-1.75,1.66-3.33,3.85-4.64,6.36l-0.41-0.63l-1.29-4.02
			c-0.12-0.38-0.47-0.63-0.86-0.63c-0.09,0-0.19,0.01-0.28,0.04c-0.47,0.15-0.74,0.66-0.59,1.14l1.36,4.26l1.14,1.76
			c-0.91,2.08-1.63,4.32-2.1,6.61c-0.07,0-0.14,0.01-0.2,0.03l-3.15,0.83c-0.34,0.09-0.6,0.37-0.66,0.72l-1.52,8.86
			c-0.08,0.49,0.25,0.96,0.74,1.04c0.05,0.01,0.1,0.01,0.15,0.01c0.44,0,0.82-0.32,0.89-0.75l1.42-8.29l1.99-0.52
			c-0.16,1.09-0.26,2.19-0.29,3.28c-0.08,2.51,0.2,4.75,0.8,6.61c-0.08,0.05-0.16,0.12-0.23,0.2l-2.92,3.53
			c-0.23,0.27-0.27,0.66-0.12,0.98l2.82,5.71c0.15,0.31,0.46,0.5,0.81,0.5c0.14,0,0.27-0.03,0.4-0.09c0.45-0.22,0.63-0.77,0.41-1.21
			l-2.56-5.18l2.14-2.59c0.69,1.32,1.6,2.36,2.69,3.04c0.93,0.58,1.97,0.87,3.08,0.87c1.21,0,2.47-0.34,3.73-1.02
			c0.02-0.01,0.04-0.02,0.06-0.03c0.01,0,0.01-0.01,0.02-0.01c3.98-2.18,7.55-7.44,9.53-13.44c0.04,0.01,0.07,0.02,0.11,0.03
			l2.21,0.36l-2.9,7.94c-0.17,0.47,0.07,0.99,0.54,1.16c0.1,0.04,0.2,0.05,0.31,0.05c0.38,0,0.72-0.24,0.85-0.59l3.27-8.97
			c0.09-0.25,0.07-0.53-0.07-0.77c-0.14-0.23-0.37-0.39-0.63-0.44l-3.17-0.52c0.63-2.32,1.02-4.72,1.09-7.06
			c0.04-1.33-0.02-2.59-0.17-3.75c0.03-0.02,0.05-0.03,0.08-0.05l1.95-1.57l0.8,5.92c0.06,0.45,0.44,0.78,0.89,0.78
			c0.04,0,0.08,0,0.12-0.01c0.24-0.03,0.45-0.15,0.6-0.35C281.19,107.28,281.26,107.04,281.23,106.8z M266.56,96.76
			c1-0.54,1.97-0.81,2.87-0.81c0.77,0,1.49,0.2,2.13,0.6c0.36,0.23,0.7,0.51,1.01,0.85c-1.85,3.67-4.49,6.66-7.2,8.11
			c-1.14,0.61-2.22,0.92-3.22,0.92c-1.09,0-2.05-0.37-2.81-1.09C261.22,101.44,263.79,98.25,266.56,96.76z M256.3,117.49
			c0.11-3.51,0.95-7.15,2.28-10.42c1.01,0.78,2.2,1.18,3.54,1.18c0.88,0,1.8-0.18,2.75-0.53l-0.61,19.68
			c-0.84,0.39-1.65,0.58-2.41,0.58c-0.77,0-1.49-0.2-2.13-0.6C257.43,125.98,256.15,122.28,256.3,117.49z M266.1,126.28l0.6-19.44
			c2.66-1.58,5.14-4.31,7.02-7.73c0.89,1.84,1.34,4.38,1.25,7.33C274.73,114.24,270.87,122.67,266.1,126.28z"/>
	</g>
</g>
<g id="Padlock_2_">
	<g id="Padlock_1_">
		<g id="Padlock">
			<path class="st1" d="M433.25,227.81c0-1-0.66-2.01-1.99-2.78l-3.92-2.26c-2.66-1.53-6.96-1.53-9.62,0l-35.49,20.49
				c-1.33,0.77-1.99,1.77-1.99,2.78l0,0l0,46.87l0,0c0,1.01,0.66,2.01,1.99,2.78l3.91,2.26c2.66,1.53,6.96,1.53,9.62,0l35.49-20.49
				c1.33-0.77,1.99-1.77,1.99-2.78l0,0V227.81L433.25,227.81z"/>
			<path class="st25" d="M386.15,251.07l-3.91-2.26c-2.66-1.53-2.66-4.02,0-5.55l35.49-20.49c2.66-1.53,6.96-1.53,9.62,0l3.92,2.26
				c2.66,1.53,2.66,4.02,0,5.55l-35.49,20.49C393.11,252.6,388.8,252.6,386.15,251.07z"/>
			<g>
				<path class="st1" d="M423.66,230.03c0,1.22-1.72,2.2-3.84,2.2c-2.12,0-3.84-0.99-3.84-2.2c0-1.22,1.72-2.2,3.84-2.2
					C421.94,227.82,423.66,228.81,423.66,230.03z"/>
				<path class="st13" d="M423.66,230.03c0,1.22-1.72,2.2-3.84,2.2c-2.12,0-3.84-0.99-3.84-2.2c0-1.22,1.72-2.2,3.84-2.2
					C421.94,227.82,423.66,228.81,423.66,230.03z"/>
				<path class="st13" d="M419.82,230.03c-1.42,0-2.64,0.45-3.3,1.1c0.66,0.66,1.89,1.1,3.3,1.1c1.42,0,2.64-0.45,3.3-1.1
					C422.46,230.48,421.24,230.03,419.82,230.03z"/>
			</g>
			<path class="st13" d="M390.96,252.22v46.88c-1.74,0-3.49-0.38-4.81-1.14l-3.92-2.27c-1.33-0.77-2-1.78-1.99-2.79v-46.87
				c0,1.01,0.66,2.01,1.99,2.78l3.92,2.27C387.48,251.84,389.22,252.22,390.96,252.22z"/>
			<g id="XMLID_1128_">
				<path id="XMLID_1131_" class="st9" d="M416.79,275.41l-8.47,4.89l1.31-15.33c-1.01-0.54-1.66-1.85-1.66-3.75
					c0-3.38,2.05-7.3,4.58-8.76c2.53-1.46,4.58,0.09,4.58,3.47c0,1.89-0.65,3.96-1.66,5.66L416.79,275.41z"/>
				<polygon id="XMLID_1130_" class="st0" points="416.79,275.41 409.11,270.98 408.31,280.3 				"/>
				<path id="XMLID_1129_" class="st0" d="M412.55,252.47c-1.66,0.96-3.1,2.97-3.91,5.19l6.83,3.94l0,0
					c1.01-1.71,1.66-3.77,1.66-5.66C417.13,252.56,415.08,251.01,412.55,252.47z"/>
			</g>
			<path class="st16" d="M423.66,211.62C423.66,211.61,423.66,211.61,423.66,211.62L423.66,211.62v-1.51
				c0-5.81-2.19-10.4-6.02-12.61c-3.65-2.11-8.17-1.82-12.71,0.8c-8.35,4.82-14.9,16.59-14.9,26.8v18.85h0
				c0,0.57,0.38,1.13,1.13,1.56c1.5,0.86,3.92,0.86,5.42,0c0.75-0.43,1.13-1,1.13-1.56h0v-18.85c0-7.46,5.07-16.69,11.06-20.15
				c2.04-1.18,3.88-1.47,5.04-0.8c1.37,0.79,2.18,3.02,2.18,5.97v1.51h0c0,0,0,0,0,0v0.01h0c0.01,0.56,0.38,1.12,1.12,1.55
				c1.5,0.86,3.92,0.86,5.42,0C423.27,212.75,423.65,212.18,423.66,211.62L423.66,211.62L423.66,211.62z"/>
			<path class="st26" d="M408.43,196.74c-0.41,0.19-0.81,0.41-1.22,0.64c-8.35,4.82-14.9,16.6-14.9,26.81v18.84
				c0,0.57,0.37,1.14,1.13,1.57c0.98,0.56,2.34,0.77,3.58,0.59c-0.12,0.12-0.28,0.23-0.45,0.33c-1.5,0.87-3.92,0.87-5.42,0
				c-0.76-0.43-1.13-0.99-1.13-1.57v-18.85c0-10.2,6.55-21.97,14.9-26.79C406.1,197.62,407.27,197.09,408.43,196.74z"/>
			<path class="st16" d="M423.66,210.11v1.51c-0.01,0.43-0.23,0.86-0.67,1.23c-0.14,0.11-0.28,0.23-0.46,0.33
				c-1.5,0.86-3.92,0.86-5.42,0c-0.74-0.43-1.12-0.99-1.13-1.56v-1.51c0-2.95-0.81-5.19-2.18-5.97c-0.67-0.38-1.56-0.45-2.57-0.2
				c-0.77,0.17-1.61,0.51-2.48,1.01c-6,3.46-11.07,12.69-11.07,20.14v18.85c0,0.44-0.23,0.88-0.67,1.24
				c-1.24,0.18-2.6-0.02-3.58-0.59c-0.76-0.43-1.13-0.99-1.13-1.57v-18.84c0-10.2,6.55-21.98,14.9-26.81
				c0.41-0.24,0.81-0.45,1.22-0.64c3.31-1.06,6.5-0.81,9.21,0.76C421.46,199.7,423.66,204.3,423.66,210.11z"/>
		</g>
		<g id="Bolt_2_">
			<g>
				<polygon class="st1" points="450.87,207.37 441.87,211.63 442.63,214.73 437.02,215.03 437.99,217.67 431.45,219.31 
					442.21,220.47 441.04,217.56 448.21,218.27 447,214 453.59,214.27 				"/>
				<polygon class="st19" points="450.87,207.37 441.87,211.63 442.63,214.73 437.02,215.03 437.99,217.67 431.45,219.31 
					442.21,220.47 441.04,217.56 448.21,218.27 447,214 453.59,214.27 				"/>
			</g>
			<g>
				<polygon class="st1" points="430.35,209.95 432.54,212.59 428.74,218.16 436.35,212.74 434.74,210.49 440.57,206.24 
					436.15,202.75 				"/>
				<polygon class="st19" points="430.35,209.95 432.54,212.59 428.74,218.16 436.35,212.74 434.74,210.49 440.57,206.24 
					436.15,202.75 				"/>
			</g>
		</g>
	</g>
</g>
</svg>
